%TF.GenerationSoftware,KiCad,Pcbnew,(6.0.5)*%
%TF.CreationDate,2022-05-28T17:09:23-07:00*%
%TF.ProjectId,HT_1590BB,48545f31-3539-4304-9242-2e6b69636164,rev?*%
%TF.SameCoordinates,Original*%
%TF.FileFunction,Legend,Top*%
%TF.FilePolarity,Positive*%
%FSLAX46Y46*%
G04 Gerber Fmt 4.6, Leading zero omitted, Abs format (unit mm)*
G04 Created by KiCad (PCBNEW (6.0.5)) date 2022-05-28 17:09:23*
%MOMM*%
%LPD*%
G01*
G04 APERTURE LIST*
%ADD10C,0.250000*%
%ADD11C,0.150000*%
%ADD12C,0.120000*%
G04 APERTURE END LIST*
D10*
X158761904Y-54184761D02*
X158761904Y-52184761D01*
X158761904Y-53137142D02*
X159904761Y-53137142D01*
X159904761Y-54184761D02*
X159904761Y-52184761D01*
X161714285Y-54184761D02*
X161714285Y-53137142D01*
X161619047Y-52946666D01*
X161428571Y-52851428D01*
X161047619Y-52851428D01*
X160857142Y-52946666D01*
X161714285Y-54089523D02*
X161523809Y-54184761D01*
X161047619Y-54184761D01*
X160857142Y-54089523D01*
X160761904Y-53899047D01*
X160761904Y-53708571D01*
X160857142Y-53518095D01*
X161047619Y-53422857D01*
X161523809Y-53422857D01*
X161714285Y-53327619D01*
X162666666Y-54184761D02*
X162666666Y-52851428D01*
X162666666Y-53232380D02*
X162761904Y-53041904D01*
X162857142Y-52946666D01*
X163047619Y-52851428D01*
X163238095Y-52851428D01*
X163904761Y-54184761D02*
X163904761Y-52851428D01*
X163904761Y-53041904D02*
X164000000Y-52946666D01*
X164190476Y-52851428D01*
X164476190Y-52851428D01*
X164666666Y-52946666D01*
X164761904Y-53137142D01*
X164761904Y-54184761D01*
X164761904Y-53137142D02*
X164857142Y-52946666D01*
X165047619Y-52851428D01*
X165333333Y-52851428D01*
X165523809Y-52946666D01*
X165619047Y-53137142D01*
X165619047Y-54184761D01*
X166857142Y-54184761D02*
X166666666Y-54089523D01*
X166571428Y-53994285D01*
X166476190Y-53803809D01*
X166476190Y-53232380D01*
X166571428Y-53041904D01*
X166666666Y-52946666D01*
X166857142Y-52851428D01*
X167142857Y-52851428D01*
X167333333Y-52946666D01*
X167428571Y-53041904D01*
X167523809Y-53232380D01*
X167523809Y-53803809D01*
X167428571Y-53994285D01*
X167333333Y-54089523D01*
X167142857Y-54184761D01*
X166857142Y-54184761D01*
X168380952Y-52851428D02*
X168380952Y-54184761D01*
X168380952Y-53041904D02*
X168476190Y-52946666D01*
X168666666Y-52851428D01*
X168952380Y-52851428D01*
X169142857Y-52946666D01*
X169238095Y-53137142D01*
X169238095Y-54184761D01*
X170190476Y-54184761D02*
X170190476Y-52851428D01*
X170190476Y-52184761D02*
X170095238Y-52280000D01*
X170190476Y-52375238D01*
X170285714Y-52280000D01*
X170190476Y-52184761D01*
X170190476Y-52375238D01*
X172000000Y-54089523D02*
X171809523Y-54184761D01*
X171428571Y-54184761D01*
X171238095Y-54089523D01*
X171142857Y-53994285D01*
X171047619Y-53803809D01*
X171047619Y-53232380D01*
X171142857Y-53041904D01*
X171238095Y-52946666D01*
X171428571Y-52851428D01*
X171809523Y-52851428D01*
X172000000Y-52946666D01*
X174095238Y-52184761D02*
X175238095Y-52184761D01*
X174666666Y-54184761D02*
X174666666Y-52184761D01*
X175904761Y-54184761D02*
X175904761Y-52851428D01*
X175904761Y-53232380D02*
X176000000Y-53041904D01*
X176095238Y-52946666D01*
X176285714Y-52851428D01*
X176476190Y-52851428D01*
X177904761Y-54089523D02*
X177714285Y-54184761D01*
X177333333Y-54184761D01*
X177142857Y-54089523D01*
X177047619Y-53899047D01*
X177047619Y-53137142D01*
X177142857Y-52946666D01*
X177333333Y-52851428D01*
X177714285Y-52851428D01*
X177904761Y-52946666D01*
X178000000Y-53137142D01*
X178000000Y-53327619D01*
X177047619Y-53518095D01*
X178857142Y-54184761D02*
X178857142Y-52851428D01*
X178857142Y-53041904D02*
X178952380Y-52946666D01*
X179142857Y-52851428D01*
X179428571Y-52851428D01*
X179619047Y-52946666D01*
X179714285Y-53137142D01*
X179714285Y-54184761D01*
X179714285Y-53137142D02*
X179809523Y-52946666D01*
X180000000Y-52851428D01*
X180285714Y-52851428D01*
X180476190Y-52946666D01*
X180571428Y-53137142D01*
X180571428Y-54184761D01*
X181809523Y-54184761D02*
X181619047Y-54089523D01*
X181523809Y-53994285D01*
X181428571Y-53803809D01*
X181428571Y-53232380D01*
X181523809Y-53041904D01*
X181619047Y-52946666D01*
X181809523Y-52851428D01*
X182095238Y-52851428D01*
X182285714Y-52946666D01*
X182380952Y-53041904D01*
X182476190Y-53232380D01*
X182476190Y-53803809D01*
X182380952Y-53994285D01*
X182285714Y-54089523D01*
X182095238Y-54184761D01*
X181809523Y-54184761D01*
X183619047Y-54184761D02*
X183428571Y-54089523D01*
X183333333Y-53899047D01*
X183333333Y-52184761D01*
X184666666Y-54184761D02*
X184476190Y-54089523D01*
X184380952Y-53994285D01*
X184285714Y-53803809D01*
X184285714Y-53232380D01*
X184380952Y-53041904D01*
X184476190Y-52946666D01*
X184666666Y-52851428D01*
X184952380Y-52851428D01*
X185142857Y-52946666D01*
X185238095Y-53041904D01*
X185333333Y-53232380D01*
X185333333Y-53803809D01*
X185238095Y-53994285D01*
X185142857Y-54089523D01*
X184952380Y-54184761D01*
X184666666Y-54184761D01*
X187428571Y-52184761D02*
X188095238Y-54184761D01*
X188761904Y-52184761D01*
X189333333Y-52375238D02*
X189428571Y-52280000D01*
X189619047Y-52184761D01*
X190095238Y-52184761D01*
X190285714Y-52280000D01*
X190380952Y-52375238D01*
X190476190Y-52565714D01*
X190476190Y-52756190D01*
X190380952Y-53041904D01*
X189238095Y-54184761D01*
X190476190Y-54184761D01*
X191333333Y-53994285D02*
X191428571Y-54089523D01*
X191333333Y-54184761D01*
X191238095Y-54089523D01*
X191333333Y-53994285D01*
X191333333Y-54184761D01*
X192666666Y-52184761D02*
X192857142Y-52184761D01*
X193047619Y-52280000D01*
X193142857Y-52375238D01*
X193238095Y-52565714D01*
X193333333Y-52946666D01*
X193333333Y-53422857D01*
X193238095Y-53803809D01*
X193142857Y-53994285D01*
X193047619Y-54089523D01*
X192857142Y-54184761D01*
X192666666Y-54184761D01*
X192476190Y-54089523D01*
X192380952Y-53994285D01*
X192285714Y-53803809D01*
X192190476Y-53422857D01*
X192190476Y-52946666D01*
X192285714Y-52565714D01*
X192380952Y-52375238D01*
X192476190Y-52280000D01*
X192666666Y-52184761D01*
X170857142Y-56357142D02*
X171142857Y-56452380D01*
X171238095Y-56547619D01*
X171333333Y-56738095D01*
X171333333Y-57023809D01*
X171238095Y-57214285D01*
X171142857Y-57309523D01*
X170952380Y-57404761D01*
X170190476Y-57404761D01*
X170190476Y-55404761D01*
X170857142Y-55404761D01*
X171047619Y-55500000D01*
X171142857Y-55595238D01*
X171238095Y-55785714D01*
X171238095Y-55976190D01*
X171142857Y-56166666D01*
X171047619Y-56261904D01*
X170857142Y-56357142D01*
X170190476Y-56357142D01*
X172000000Y-56071428D02*
X172476190Y-57404761D01*
X172952380Y-56071428D02*
X172476190Y-57404761D01*
X172285714Y-57880952D01*
X172190476Y-57976190D01*
X172000000Y-58071428D01*
X175904761Y-56357142D02*
X176190476Y-56452380D01*
X176285714Y-56547619D01*
X176380952Y-56738095D01*
X176380952Y-57023809D01*
X176285714Y-57214285D01*
X176190476Y-57309523D01*
X176000000Y-57404761D01*
X175238095Y-57404761D01*
X175238095Y-55404761D01*
X175904761Y-55404761D01*
X176095238Y-55500000D01*
X176190476Y-55595238D01*
X176285714Y-55785714D01*
X176285714Y-55976190D01*
X176190476Y-56166666D01*
X176095238Y-56261904D01*
X175904761Y-56357142D01*
X175238095Y-56357142D01*
X177238095Y-57404761D02*
X177238095Y-55404761D01*
X178380952Y-57404761D02*
X177523809Y-56261904D01*
X178380952Y-55404761D02*
X177238095Y-56547619D01*
X179238095Y-57404761D02*
X179238095Y-55404761D01*
X179714285Y-55404761D01*
X180000000Y-55500000D01*
X180190476Y-55690476D01*
X180285714Y-55880952D01*
X180380952Y-56261904D01*
X180380952Y-56547619D01*
X180285714Y-56928571D01*
X180190476Y-57119047D01*
X180000000Y-57309523D01*
X179714285Y-57404761D01*
X179238095Y-57404761D01*
X172571428Y-58815238D02*
X172666666Y-58720000D01*
X172857142Y-58624761D01*
X173333333Y-58624761D01*
X173523809Y-58720000D01*
X173619047Y-58815238D01*
X173714285Y-59005714D01*
X173714285Y-59196190D01*
X173619047Y-59481904D01*
X172476190Y-60624761D01*
X173714285Y-60624761D01*
X174952380Y-58624761D02*
X175142857Y-58624761D01*
X175333333Y-58720000D01*
X175428571Y-58815238D01*
X175523809Y-59005714D01*
X175619047Y-59386666D01*
X175619047Y-59862857D01*
X175523809Y-60243809D01*
X175428571Y-60434285D01*
X175333333Y-60529523D01*
X175142857Y-60624761D01*
X174952380Y-60624761D01*
X174761904Y-60529523D01*
X174666666Y-60434285D01*
X174571428Y-60243809D01*
X174476190Y-59862857D01*
X174476190Y-59386666D01*
X174571428Y-59005714D01*
X174666666Y-58815238D01*
X174761904Y-58720000D01*
X174952380Y-58624761D01*
X176380952Y-58815238D02*
X176476190Y-58720000D01*
X176666666Y-58624761D01*
X177142857Y-58624761D01*
X177333333Y-58720000D01*
X177428571Y-58815238D01*
X177523809Y-59005714D01*
X177523809Y-59196190D01*
X177428571Y-59481904D01*
X176285714Y-60624761D01*
X177523809Y-60624761D01*
X178285714Y-58815238D02*
X178380952Y-58720000D01*
X178571428Y-58624761D01*
X179047619Y-58624761D01*
X179238095Y-58720000D01*
X179333333Y-58815238D01*
X179428571Y-59005714D01*
X179428571Y-59196190D01*
X179333333Y-59481904D01*
X178190476Y-60624761D01*
X179428571Y-60624761D01*
D11*
%TO.C,RV1*%
X144654761Y-61452380D02*
X144321428Y-60976190D01*
X144083333Y-61452380D02*
X144083333Y-60452380D01*
X144464285Y-60452380D01*
X144559523Y-60500000D01*
X144607142Y-60547619D01*
X144654761Y-60642857D01*
X144654761Y-60785714D01*
X144607142Y-60880952D01*
X144559523Y-60928571D01*
X144464285Y-60976190D01*
X144083333Y-60976190D01*
X144940476Y-60452380D02*
X145273809Y-61452380D01*
X145607142Y-60452380D01*
X146464285Y-61452380D02*
X145892857Y-61452380D01*
X146178571Y-61452380D02*
X146178571Y-60452380D01*
X146083333Y-60595238D01*
X145988095Y-60690476D01*
X145892857Y-60738095D01*
%TO.C,RV3*%
X108702380Y-65845238D02*
X108226190Y-66178571D01*
X108702380Y-66416666D02*
X107702380Y-66416666D01*
X107702380Y-66035714D01*
X107750000Y-65940476D01*
X107797619Y-65892857D01*
X107892857Y-65845238D01*
X108035714Y-65845238D01*
X108130952Y-65892857D01*
X108178571Y-65940476D01*
X108226190Y-66035714D01*
X108226190Y-66416666D01*
X107702380Y-65559523D02*
X108702380Y-65226190D01*
X107702380Y-64892857D01*
X107702380Y-64654761D02*
X107702380Y-64035714D01*
X108083333Y-64369047D01*
X108083333Y-64226190D01*
X108130952Y-64130952D01*
X108178571Y-64083333D01*
X108273809Y-64035714D01*
X108511904Y-64035714D01*
X108607142Y-64083333D01*
X108654761Y-64130952D01*
X108702380Y-64226190D01*
X108702380Y-64511904D01*
X108654761Y-64607142D01*
X108607142Y-64654761D01*
%TO.C,Waveform1*%
X159619047Y-77702380D02*
X159857142Y-78702380D01*
X160047619Y-77988095D01*
X160238095Y-78702380D01*
X160476190Y-77702380D01*
X161285714Y-78702380D02*
X161285714Y-78178571D01*
X161238095Y-78083333D01*
X161142857Y-78035714D01*
X160952380Y-78035714D01*
X160857142Y-78083333D01*
X161285714Y-78654761D02*
X161190476Y-78702380D01*
X160952380Y-78702380D01*
X160857142Y-78654761D01*
X160809523Y-78559523D01*
X160809523Y-78464285D01*
X160857142Y-78369047D01*
X160952380Y-78321428D01*
X161190476Y-78321428D01*
X161285714Y-78273809D01*
X161666666Y-78035714D02*
X161904761Y-78702380D01*
X162142857Y-78035714D01*
X162904761Y-78654761D02*
X162809523Y-78702380D01*
X162619047Y-78702380D01*
X162523809Y-78654761D01*
X162476190Y-78559523D01*
X162476190Y-78178571D01*
X162523809Y-78083333D01*
X162619047Y-78035714D01*
X162809523Y-78035714D01*
X162904761Y-78083333D01*
X162952380Y-78178571D01*
X162952380Y-78273809D01*
X162476190Y-78369047D01*
X163238095Y-78035714D02*
X163619047Y-78035714D01*
X163380952Y-78702380D02*
X163380952Y-77845238D01*
X163428571Y-77750000D01*
X163523809Y-77702380D01*
X163619047Y-77702380D01*
X164095238Y-78702380D02*
X164000000Y-78654761D01*
X163952380Y-78607142D01*
X163904761Y-78511904D01*
X163904761Y-78226190D01*
X163952380Y-78130952D01*
X164000000Y-78083333D01*
X164095238Y-78035714D01*
X164238095Y-78035714D01*
X164333333Y-78083333D01*
X164380952Y-78130952D01*
X164428571Y-78226190D01*
X164428571Y-78511904D01*
X164380952Y-78607142D01*
X164333333Y-78654761D01*
X164238095Y-78702380D01*
X164095238Y-78702380D01*
X164857142Y-78702380D02*
X164857142Y-78035714D01*
X164857142Y-78226190D02*
X164904761Y-78130952D01*
X164952380Y-78083333D01*
X165047619Y-78035714D01*
X165142857Y-78035714D01*
X165476190Y-78702380D02*
X165476190Y-78035714D01*
X165476190Y-78130952D02*
X165523809Y-78083333D01*
X165619047Y-78035714D01*
X165761904Y-78035714D01*
X165857142Y-78083333D01*
X165904761Y-78178571D01*
X165904761Y-78702380D01*
X165904761Y-78178571D02*
X165952380Y-78083333D01*
X166047619Y-78035714D01*
X166190476Y-78035714D01*
X166285714Y-78083333D01*
X166333333Y-78178571D01*
X166333333Y-78702380D01*
X167333333Y-78702380D02*
X166761904Y-78702380D01*
X167047619Y-78702380D02*
X167047619Y-77702380D01*
X166952380Y-77845238D01*
X166857142Y-77940476D01*
X166761904Y-77988095D01*
%TO.C,Rate1*%
X185666666Y-61452380D02*
X185333333Y-60976190D01*
X185095238Y-61452380D02*
X185095238Y-60452380D01*
X185476190Y-60452380D01*
X185571428Y-60500000D01*
X185619047Y-60547619D01*
X185666666Y-60642857D01*
X185666666Y-60785714D01*
X185619047Y-60880952D01*
X185571428Y-60928571D01*
X185476190Y-60976190D01*
X185095238Y-60976190D01*
X186523809Y-61452380D02*
X186523809Y-60928571D01*
X186476190Y-60833333D01*
X186380952Y-60785714D01*
X186190476Y-60785714D01*
X186095238Y-60833333D01*
X186523809Y-61404761D02*
X186428571Y-61452380D01*
X186190476Y-61452380D01*
X186095238Y-61404761D01*
X186047619Y-61309523D01*
X186047619Y-61214285D01*
X186095238Y-61119047D01*
X186190476Y-61071428D01*
X186428571Y-61071428D01*
X186523809Y-61023809D01*
X186857142Y-60785714D02*
X187238095Y-60785714D01*
X187000000Y-60452380D02*
X187000000Y-61309523D01*
X187047619Y-61404761D01*
X187142857Y-61452380D01*
X187238095Y-61452380D01*
X187952380Y-61404761D02*
X187857142Y-61452380D01*
X187666666Y-61452380D01*
X187571428Y-61404761D01*
X187523809Y-61309523D01*
X187523809Y-60928571D01*
X187571428Y-60833333D01*
X187666666Y-60785714D01*
X187857142Y-60785714D01*
X187952380Y-60833333D01*
X188000000Y-60928571D01*
X188000000Y-61023809D01*
X187523809Y-61119047D01*
X188952380Y-61452380D02*
X188380952Y-61452380D01*
X188666666Y-61452380D02*
X188666666Y-60452380D01*
X188571428Y-60595238D01*
X188476190Y-60690476D01*
X188380952Y-60738095D01*
%TO.C,LED1*%
X123630952Y-122622380D02*
X123154761Y-122622380D01*
X123154761Y-121622380D01*
X123964285Y-122098571D02*
X124297619Y-122098571D01*
X124440476Y-122622380D02*
X123964285Y-122622380D01*
X123964285Y-121622380D01*
X124440476Y-121622380D01*
X124869047Y-122622380D02*
X124869047Y-121622380D01*
X125107142Y-121622380D01*
X125250000Y-121670000D01*
X125345238Y-121765238D01*
X125392857Y-121860476D01*
X125440476Y-122050952D01*
X125440476Y-122193809D01*
X125392857Y-122384285D01*
X125345238Y-122479523D01*
X125250000Y-122574761D01*
X125107142Y-122622380D01*
X124869047Y-122622380D01*
X126392857Y-122622380D02*
X125821428Y-122622380D01*
X126107142Y-122622380D02*
X126107142Y-121622380D01*
X126011904Y-121765238D01*
X125916666Y-121860476D01*
X125821428Y-121908095D01*
%TO.C,LED2*%
X123630952Y-117072380D02*
X123154761Y-117072380D01*
X123154761Y-116072380D01*
X123964285Y-116548571D02*
X124297619Y-116548571D01*
X124440476Y-117072380D02*
X123964285Y-117072380D01*
X123964285Y-116072380D01*
X124440476Y-116072380D01*
X124869047Y-117072380D02*
X124869047Y-116072380D01*
X125107142Y-116072380D01*
X125250000Y-116120000D01*
X125345238Y-116215238D01*
X125392857Y-116310476D01*
X125440476Y-116500952D01*
X125440476Y-116643809D01*
X125392857Y-116834285D01*
X125345238Y-116929523D01*
X125250000Y-117024761D01*
X125107142Y-117072380D01*
X124869047Y-117072380D01*
X125821428Y-116167619D02*
X125869047Y-116120000D01*
X125964285Y-116072380D01*
X126202380Y-116072380D01*
X126297619Y-116120000D01*
X126345238Y-116167619D01*
X126392857Y-116262857D01*
X126392857Y-116358095D01*
X126345238Y-116500952D01*
X125773809Y-117072380D01*
X126392857Y-117072380D01*
%TO.C,C9*%
X158083333Y-103607142D02*
X158035714Y-103654761D01*
X157892857Y-103702380D01*
X157797619Y-103702380D01*
X157654761Y-103654761D01*
X157559523Y-103559523D01*
X157511904Y-103464285D01*
X157464285Y-103273809D01*
X157464285Y-103130952D01*
X157511904Y-102940476D01*
X157559523Y-102845238D01*
X157654761Y-102750000D01*
X157797619Y-102702380D01*
X157892857Y-102702380D01*
X158035714Y-102750000D01*
X158083333Y-102797619D01*
X158559523Y-103702380D02*
X158750000Y-103702380D01*
X158845238Y-103654761D01*
X158892857Y-103607142D01*
X158988095Y-103464285D01*
X159035714Y-103273809D01*
X159035714Y-102892857D01*
X158988095Y-102797619D01*
X158940476Y-102750000D01*
X158845238Y-102702380D01*
X158654761Y-102702380D01*
X158559523Y-102750000D01*
X158511904Y-102797619D01*
X158464285Y-102892857D01*
X158464285Y-103130952D01*
X158511904Y-103226190D01*
X158559523Y-103273809D01*
X158654761Y-103321428D01*
X158845238Y-103321428D01*
X158940476Y-103273809D01*
X158988095Y-103226190D01*
X159035714Y-103130952D01*
%TO.C,U3*%
X161738095Y-104952380D02*
X161738095Y-105761904D01*
X161785714Y-105857142D01*
X161833333Y-105904761D01*
X161928571Y-105952380D01*
X162119047Y-105952380D01*
X162214285Y-105904761D01*
X162261904Y-105857142D01*
X162309523Y-105761904D01*
X162309523Y-104952380D01*
X162690476Y-104952380D02*
X163309523Y-104952380D01*
X162976190Y-105333333D01*
X163119047Y-105333333D01*
X163214285Y-105380952D01*
X163261904Y-105428571D01*
X163309523Y-105523809D01*
X163309523Y-105761904D01*
X163261904Y-105857142D01*
X163214285Y-105904761D01*
X163119047Y-105952380D01*
X162833333Y-105952380D01*
X162738095Y-105904761D01*
X162690476Y-105857142D01*
%TO.C,U1*%
X123728095Y-78452380D02*
X123728095Y-79261904D01*
X123775714Y-79357142D01*
X123823333Y-79404761D01*
X123918571Y-79452380D01*
X124109047Y-79452380D01*
X124204285Y-79404761D01*
X124251904Y-79357142D01*
X124299523Y-79261904D01*
X124299523Y-78452380D01*
X125299523Y-79452380D02*
X124728095Y-79452380D01*
X125013809Y-79452380D02*
X125013809Y-78452380D01*
X124918571Y-78595238D01*
X124823333Y-78690476D01*
X124728095Y-78738095D01*
%TO.C,R19*%
X140107142Y-83202380D02*
X139773809Y-82726190D01*
X139535714Y-83202380D02*
X139535714Y-82202380D01*
X139916666Y-82202380D01*
X140011904Y-82250000D01*
X140059523Y-82297619D01*
X140107142Y-82392857D01*
X140107142Y-82535714D01*
X140059523Y-82630952D01*
X140011904Y-82678571D01*
X139916666Y-82726190D01*
X139535714Y-82726190D01*
X141059523Y-83202380D02*
X140488095Y-83202380D01*
X140773809Y-83202380D02*
X140773809Y-82202380D01*
X140678571Y-82345238D01*
X140583333Y-82440476D01*
X140488095Y-82488095D01*
X141535714Y-83202380D02*
X141726190Y-83202380D01*
X141821428Y-83154761D01*
X141869047Y-83107142D01*
X141964285Y-82964285D01*
X142011904Y-82773809D01*
X142011904Y-82392857D01*
X141964285Y-82297619D01*
X141916666Y-82250000D01*
X141821428Y-82202380D01*
X141630952Y-82202380D01*
X141535714Y-82250000D01*
X141488095Y-82297619D01*
X141440476Y-82392857D01*
X141440476Y-82630952D01*
X141488095Y-82726190D01*
X141535714Y-82773809D01*
X141630952Y-82821428D01*
X141821428Y-82821428D01*
X141916666Y-82773809D01*
X141964285Y-82726190D01*
X142011904Y-82630952D01*
%TO.C,R12*%
X134452380Y-81642857D02*
X133976190Y-81976190D01*
X134452380Y-82214285D02*
X133452380Y-82214285D01*
X133452380Y-81833333D01*
X133500000Y-81738095D01*
X133547619Y-81690476D01*
X133642857Y-81642857D01*
X133785714Y-81642857D01*
X133880952Y-81690476D01*
X133928571Y-81738095D01*
X133976190Y-81833333D01*
X133976190Y-82214285D01*
X134452380Y-80690476D02*
X134452380Y-81261904D01*
X134452380Y-80976190D02*
X133452380Y-80976190D01*
X133595238Y-81071428D01*
X133690476Y-81166666D01*
X133738095Y-81261904D01*
X133547619Y-80309523D02*
X133500000Y-80261904D01*
X133452380Y-80166666D01*
X133452380Y-79928571D01*
X133500000Y-79833333D01*
X133547619Y-79785714D01*
X133642857Y-79738095D01*
X133738095Y-79738095D01*
X133880952Y-79785714D01*
X134452380Y-80357142D01*
X134452380Y-79738095D01*
%TO.C,C11*%
X130857142Y-98142857D02*
X130904761Y-98190476D01*
X130952380Y-98333333D01*
X130952380Y-98428571D01*
X130904761Y-98571428D01*
X130809523Y-98666666D01*
X130714285Y-98714285D01*
X130523809Y-98761904D01*
X130380952Y-98761904D01*
X130190476Y-98714285D01*
X130095238Y-98666666D01*
X130000000Y-98571428D01*
X129952380Y-98428571D01*
X129952380Y-98333333D01*
X130000000Y-98190476D01*
X130047619Y-98142857D01*
X130952380Y-97190476D02*
X130952380Y-97761904D01*
X130952380Y-97476190D02*
X129952380Y-97476190D01*
X130095238Y-97571428D01*
X130190476Y-97666666D01*
X130238095Y-97761904D01*
X130952380Y-96238095D02*
X130952380Y-96809523D01*
X130952380Y-96523809D02*
X129952380Y-96523809D01*
X130095238Y-96619047D01*
X130190476Y-96714285D01*
X130238095Y-96809523D01*
%TO.C,C10*%
X130607142Y-94142857D02*
X130654761Y-94190476D01*
X130702380Y-94333333D01*
X130702380Y-94428571D01*
X130654761Y-94571428D01*
X130559523Y-94666666D01*
X130464285Y-94714285D01*
X130273809Y-94761904D01*
X130130952Y-94761904D01*
X129940476Y-94714285D01*
X129845238Y-94666666D01*
X129750000Y-94571428D01*
X129702380Y-94428571D01*
X129702380Y-94333333D01*
X129750000Y-94190476D01*
X129797619Y-94142857D01*
X130702380Y-93190476D02*
X130702380Y-93761904D01*
X130702380Y-93476190D02*
X129702380Y-93476190D01*
X129845238Y-93571428D01*
X129940476Y-93666666D01*
X129988095Y-93761904D01*
X129702380Y-92571428D02*
X129702380Y-92476190D01*
X129750000Y-92380952D01*
X129797619Y-92333333D01*
X129892857Y-92285714D01*
X130083333Y-92238095D01*
X130321428Y-92238095D01*
X130511904Y-92285714D01*
X130607142Y-92333333D01*
X130654761Y-92380952D01*
X130702380Y-92476190D01*
X130702380Y-92571428D01*
X130654761Y-92666666D01*
X130607142Y-92714285D01*
X130511904Y-92761904D01*
X130321428Y-92809523D01*
X130083333Y-92809523D01*
X129892857Y-92761904D01*
X129797619Y-92714285D01*
X129750000Y-92666666D01*
X129702380Y-92571428D01*
%TO.C,R34*%
X135107142Y-87702380D02*
X134773809Y-87226190D01*
X134535714Y-87702380D02*
X134535714Y-86702380D01*
X134916666Y-86702380D01*
X135011904Y-86750000D01*
X135059523Y-86797619D01*
X135107142Y-86892857D01*
X135107142Y-87035714D01*
X135059523Y-87130952D01*
X135011904Y-87178571D01*
X134916666Y-87226190D01*
X134535714Y-87226190D01*
X135440476Y-86702380D02*
X136059523Y-86702380D01*
X135726190Y-87083333D01*
X135869047Y-87083333D01*
X135964285Y-87130952D01*
X136011904Y-87178571D01*
X136059523Y-87273809D01*
X136059523Y-87511904D01*
X136011904Y-87607142D01*
X135964285Y-87654761D01*
X135869047Y-87702380D01*
X135583333Y-87702380D01*
X135488095Y-87654761D01*
X135440476Y-87607142D01*
X136916666Y-87035714D02*
X136916666Y-87702380D01*
X136678571Y-86654761D02*
X136440476Y-87369047D01*
X137059523Y-87369047D01*
%TO.C,R10*%
X97357142Y-60952380D02*
X97023809Y-60476190D01*
X96785714Y-60952380D02*
X96785714Y-59952380D01*
X97166666Y-59952380D01*
X97261904Y-60000000D01*
X97309523Y-60047619D01*
X97357142Y-60142857D01*
X97357142Y-60285714D01*
X97309523Y-60380952D01*
X97261904Y-60428571D01*
X97166666Y-60476190D01*
X96785714Y-60476190D01*
X98309523Y-60952380D02*
X97738095Y-60952380D01*
X98023809Y-60952380D02*
X98023809Y-59952380D01*
X97928571Y-60095238D01*
X97833333Y-60190476D01*
X97738095Y-60238095D01*
X98928571Y-59952380D02*
X99023809Y-59952380D01*
X99119047Y-60000000D01*
X99166666Y-60047619D01*
X99214285Y-60142857D01*
X99261904Y-60333333D01*
X99261904Y-60571428D01*
X99214285Y-60761904D01*
X99166666Y-60857142D01*
X99119047Y-60904761D01*
X99023809Y-60952380D01*
X98928571Y-60952380D01*
X98833333Y-60904761D01*
X98785714Y-60857142D01*
X98738095Y-60761904D01*
X98690476Y-60571428D01*
X98690476Y-60333333D01*
X98738095Y-60142857D01*
X98785714Y-60047619D01*
X98833333Y-60000000D01*
X98928571Y-59952380D01*
%TO.C,OUTPUT*%
X109702380Y-107654761D02*
X109702380Y-107464285D01*
X109750000Y-107369047D01*
X109845238Y-107273809D01*
X110035714Y-107226190D01*
X110369047Y-107226190D01*
X110559523Y-107273809D01*
X110654761Y-107369047D01*
X110702380Y-107464285D01*
X110702380Y-107654761D01*
X110654761Y-107750000D01*
X110559523Y-107845238D01*
X110369047Y-107892857D01*
X110035714Y-107892857D01*
X109845238Y-107845238D01*
X109750000Y-107750000D01*
X109702380Y-107654761D01*
X109702380Y-106797619D02*
X110511904Y-106797619D01*
X110607142Y-106750000D01*
X110654761Y-106702380D01*
X110702380Y-106607142D01*
X110702380Y-106416666D01*
X110654761Y-106321428D01*
X110607142Y-106273809D01*
X110511904Y-106226190D01*
X109702380Y-106226190D01*
X109702380Y-105892857D02*
X109702380Y-105321428D01*
X110702380Y-105607142D02*
X109702380Y-105607142D01*
X110702380Y-104988095D02*
X109702380Y-104988095D01*
X109702380Y-104607142D01*
X109750000Y-104511904D01*
X109797619Y-104464285D01*
X109892857Y-104416666D01*
X110035714Y-104416666D01*
X110130952Y-104464285D01*
X110178571Y-104511904D01*
X110226190Y-104607142D01*
X110226190Y-104988095D01*
X109702380Y-103988095D02*
X110511904Y-103988095D01*
X110607142Y-103940476D01*
X110654761Y-103892857D01*
X110702380Y-103797619D01*
X110702380Y-103607142D01*
X110654761Y-103511904D01*
X110607142Y-103464285D01*
X110511904Y-103416666D01*
X109702380Y-103416666D01*
X109702380Y-103083333D02*
X109702380Y-102511904D01*
X110702380Y-102797619D02*
X109702380Y-102797619D01*
%TO.C,C8*%
X191583333Y-118607142D02*
X191535714Y-118654761D01*
X191392857Y-118702380D01*
X191297619Y-118702380D01*
X191154761Y-118654761D01*
X191059523Y-118559523D01*
X191011904Y-118464285D01*
X190964285Y-118273809D01*
X190964285Y-118130952D01*
X191011904Y-117940476D01*
X191059523Y-117845238D01*
X191154761Y-117750000D01*
X191297619Y-117702380D01*
X191392857Y-117702380D01*
X191535714Y-117750000D01*
X191583333Y-117797619D01*
X192154761Y-118130952D02*
X192059523Y-118083333D01*
X192011904Y-118035714D01*
X191964285Y-117940476D01*
X191964285Y-117892857D01*
X192011904Y-117797619D01*
X192059523Y-117750000D01*
X192154761Y-117702380D01*
X192345238Y-117702380D01*
X192440476Y-117750000D01*
X192488095Y-117797619D01*
X192535714Y-117892857D01*
X192535714Y-117940476D01*
X192488095Y-118035714D01*
X192440476Y-118083333D01*
X192345238Y-118130952D01*
X192154761Y-118130952D01*
X192059523Y-118178571D01*
X192011904Y-118226190D01*
X191964285Y-118321428D01*
X191964285Y-118511904D01*
X192011904Y-118607142D01*
X192059523Y-118654761D01*
X192154761Y-118702380D01*
X192345238Y-118702380D01*
X192440476Y-118654761D01*
X192488095Y-118607142D01*
X192535714Y-118511904D01*
X192535714Y-118321428D01*
X192488095Y-118226190D01*
X192440476Y-118178571D01*
X192345238Y-118130952D01*
%TO.C,R2*%
X123333333Y-75202380D02*
X123000000Y-74726190D01*
X122761904Y-75202380D02*
X122761904Y-74202380D01*
X123142857Y-74202380D01*
X123238095Y-74250000D01*
X123285714Y-74297619D01*
X123333333Y-74392857D01*
X123333333Y-74535714D01*
X123285714Y-74630952D01*
X123238095Y-74678571D01*
X123142857Y-74726190D01*
X122761904Y-74726190D01*
X123714285Y-74297619D02*
X123761904Y-74250000D01*
X123857142Y-74202380D01*
X124095238Y-74202380D01*
X124190476Y-74250000D01*
X124238095Y-74297619D01*
X124285714Y-74392857D01*
X124285714Y-74488095D01*
X124238095Y-74630952D01*
X123666666Y-75202380D01*
X124285714Y-75202380D01*
%TO.C,R8*%
X122833333Y-103202380D02*
X122500000Y-102726190D01*
X122261904Y-103202380D02*
X122261904Y-102202380D01*
X122642857Y-102202380D01*
X122738095Y-102250000D01*
X122785714Y-102297619D01*
X122833333Y-102392857D01*
X122833333Y-102535714D01*
X122785714Y-102630952D01*
X122738095Y-102678571D01*
X122642857Y-102726190D01*
X122261904Y-102726190D01*
X123404761Y-102630952D02*
X123309523Y-102583333D01*
X123261904Y-102535714D01*
X123214285Y-102440476D01*
X123214285Y-102392857D01*
X123261904Y-102297619D01*
X123309523Y-102250000D01*
X123404761Y-102202380D01*
X123595238Y-102202380D01*
X123690476Y-102250000D01*
X123738095Y-102297619D01*
X123785714Y-102392857D01*
X123785714Y-102440476D01*
X123738095Y-102535714D01*
X123690476Y-102583333D01*
X123595238Y-102630952D01*
X123404761Y-102630952D01*
X123309523Y-102678571D01*
X123261904Y-102726190D01*
X123214285Y-102821428D01*
X123214285Y-103011904D01*
X123261904Y-103107142D01*
X123309523Y-103154761D01*
X123404761Y-103202380D01*
X123595238Y-103202380D01*
X123690476Y-103154761D01*
X123738095Y-103107142D01*
X123785714Y-103011904D01*
X123785714Y-102821428D01*
X123738095Y-102726190D01*
X123690476Y-102678571D01*
X123595238Y-102630952D01*
%TO.C,C1*%
X111583333Y-51107142D02*
X111535714Y-51154761D01*
X111392857Y-51202380D01*
X111297619Y-51202380D01*
X111154761Y-51154761D01*
X111059523Y-51059523D01*
X111011904Y-50964285D01*
X110964285Y-50773809D01*
X110964285Y-50630952D01*
X111011904Y-50440476D01*
X111059523Y-50345238D01*
X111154761Y-50250000D01*
X111297619Y-50202380D01*
X111392857Y-50202380D01*
X111535714Y-50250000D01*
X111583333Y-50297619D01*
X112535714Y-51202380D02*
X111964285Y-51202380D01*
X112250000Y-51202380D02*
X112250000Y-50202380D01*
X112154761Y-50345238D01*
X112059523Y-50440476D01*
X111964285Y-50488095D01*
%TO.C,R21*%
X168357142Y-99202380D02*
X168023809Y-98726190D01*
X167785714Y-99202380D02*
X167785714Y-98202380D01*
X168166666Y-98202380D01*
X168261904Y-98250000D01*
X168309523Y-98297619D01*
X168357142Y-98392857D01*
X168357142Y-98535714D01*
X168309523Y-98630952D01*
X168261904Y-98678571D01*
X168166666Y-98726190D01*
X167785714Y-98726190D01*
X168738095Y-98297619D02*
X168785714Y-98250000D01*
X168880952Y-98202380D01*
X169119047Y-98202380D01*
X169214285Y-98250000D01*
X169261904Y-98297619D01*
X169309523Y-98392857D01*
X169309523Y-98488095D01*
X169261904Y-98630952D01*
X168690476Y-99202380D01*
X169309523Y-99202380D01*
X170261904Y-99202380D02*
X169690476Y-99202380D01*
X169976190Y-99202380D02*
X169976190Y-98202380D01*
X169880952Y-98345238D01*
X169785714Y-98440476D01*
X169690476Y-98488095D01*
%TO.C,C4*%
X116833333Y-79607142D02*
X116785714Y-79654761D01*
X116642857Y-79702380D01*
X116547619Y-79702380D01*
X116404761Y-79654761D01*
X116309523Y-79559523D01*
X116261904Y-79464285D01*
X116214285Y-79273809D01*
X116214285Y-79130952D01*
X116261904Y-78940476D01*
X116309523Y-78845238D01*
X116404761Y-78750000D01*
X116547619Y-78702380D01*
X116642857Y-78702380D01*
X116785714Y-78750000D01*
X116833333Y-78797619D01*
X117690476Y-79035714D02*
X117690476Y-79702380D01*
X117452380Y-78654761D02*
X117214285Y-79369047D01*
X117833333Y-79369047D01*
%TO.C,J8*%
X112416666Y-92702380D02*
X112416666Y-93416666D01*
X112369047Y-93559523D01*
X112273809Y-93654761D01*
X112130952Y-93702380D01*
X112035714Y-93702380D01*
X113035714Y-93130952D02*
X112940476Y-93083333D01*
X112892857Y-93035714D01*
X112845238Y-92940476D01*
X112845238Y-92892857D01*
X112892857Y-92797619D01*
X112940476Y-92750000D01*
X113035714Y-92702380D01*
X113226190Y-92702380D01*
X113321428Y-92750000D01*
X113369047Y-92797619D01*
X113416666Y-92892857D01*
X113416666Y-92940476D01*
X113369047Y-93035714D01*
X113321428Y-93083333D01*
X113226190Y-93130952D01*
X113035714Y-93130952D01*
X112940476Y-93178571D01*
X112892857Y-93226190D01*
X112845238Y-93321428D01*
X112845238Y-93511904D01*
X112892857Y-93607142D01*
X112940476Y-93654761D01*
X113035714Y-93702380D01*
X113226190Y-93702380D01*
X113321428Y-93654761D01*
X113369047Y-93607142D01*
X113416666Y-93511904D01*
X113416666Y-93321428D01*
X113369047Y-93226190D01*
X113321428Y-93178571D01*
X113226190Y-93130952D01*
%TO.C,R20*%
X145607142Y-73452380D02*
X145273809Y-72976190D01*
X145035714Y-73452380D02*
X145035714Y-72452380D01*
X145416666Y-72452380D01*
X145511904Y-72500000D01*
X145559523Y-72547619D01*
X145607142Y-72642857D01*
X145607142Y-72785714D01*
X145559523Y-72880952D01*
X145511904Y-72928571D01*
X145416666Y-72976190D01*
X145035714Y-72976190D01*
X145988095Y-72547619D02*
X146035714Y-72500000D01*
X146130952Y-72452380D01*
X146369047Y-72452380D01*
X146464285Y-72500000D01*
X146511904Y-72547619D01*
X146559523Y-72642857D01*
X146559523Y-72738095D01*
X146511904Y-72880952D01*
X145940476Y-73452380D01*
X146559523Y-73452380D01*
X147178571Y-72452380D02*
X147273809Y-72452380D01*
X147369047Y-72500000D01*
X147416666Y-72547619D01*
X147464285Y-72642857D01*
X147511904Y-72833333D01*
X147511904Y-73071428D01*
X147464285Y-73261904D01*
X147416666Y-73357142D01*
X147369047Y-73404761D01*
X147273809Y-73452380D01*
X147178571Y-73452380D01*
X147083333Y-73404761D01*
X147035714Y-73357142D01*
X146988095Y-73261904D01*
X146940476Y-73071428D01*
X146940476Y-72833333D01*
X146988095Y-72642857D01*
X147035714Y-72547619D01*
X147083333Y-72500000D01*
X147178571Y-72452380D01*
%TO.C,Q1*%
X103497619Y-56095238D02*
X103450000Y-56190476D01*
X103354761Y-56285714D01*
X103211904Y-56428571D01*
X103164285Y-56523809D01*
X103164285Y-56619047D01*
X103402380Y-56571428D02*
X103354761Y-56666666D01*
X103259523Y-56761904D01*
X103069047Y-56809523D01*
X102735714Y-56809523D01*
X102545238Y-56761904D01*
X102450000Y-56666666D01*
X102402380Y-56571428D01*
X102402380Y-56380952D01*
X102450000Y-56285714D01*
X102545238Y-56190476D01*
X102735714Y-56142857D01*
X103069047Y-56142857D01*
X103259523Y-56190476D01*
X103354761Y-56285714D01*
X103402380Y-56380952D01*
X103402380Y-56571428D01*
X103402380Y-55190476D02*
X103402380Y-55761904D01*
X103402380Y-55476190D02*
X102402380Y-55476190D01*
X102545238Y-55571428D01*
X102640476Y-55666666D01*
X102688095Y-55761904D01*
%TO.C,U4*%
X129202380Y-118511904D02*
X130011904Y-118511904D01*
X130107142Y-118464285D01*
X130154761Y-118416666D01*
X130202380Y-118321428D01*
X130202380Y-118130952D01*
X130154761Y-118035714D01*
X130107142Y-117988095D01*
X130011904Y-117940476D01*
X129202380Y-117940476D01*
X129535714Y-117035714D02*
X130202380Y-117035714D01*
X129154761Y-117273809D02*
X129869047Y-117511904D01*
X129869047Y-116892857D01*
%TO.C,R25*%
X162952380Y-92312857D02*
X162476190Y-92646190D01*
X162952380Y-92884285D02*
X161952380Y-92884285D01*
X161952380Y-92503333D01*
X162000000Y-92408095D01*
X162047619Y-92360476D01*
X162142857Y-92312857D01*
X162285714Y-92312857D01*
X162380952Y-92360476D01*
X162428571Y-92408095D01*
X162476190Y-92503333D01*
X162476190Y-92884285D01*
X162047619Y-91931904D02*
X162000000Y-91884285D01*
X161952380Y-91789047D01*
X161952380Y-91550952D01*
X162000000Y-91455714D01*
X162047619Y-91408095D01*
X162142857Y-91360476D01*
X162238095Y-91360476D01*
X162380952Y-91408095D01*
X162952380Y-91979523D01*
X162952380Y-91360476D01*
X161952380Y-90455714D02*
X161952380Y-90931904D01*
X162428571Y-90979523D01*
X162380952Y-90931904D01*
X162333333Y-90836666D01*
X162333333Y-90598571D01*
X162380952Y-90503333D01*
X162428571Y-90455714D01*
X162523809Y-90408095D01*
X162761904Y-90408095D01*
X162857142Y-90455714D01*
X162904761Y-90503333D01*
X162952380Y-90598571D01*
X162952380Y-90836666D01*
X162904761Y-90931904D01*
X162857142Y-90979523D01*
%TO.C,R29*%
X169607142Y-126952380D02*
X169273809Y-126476190D01*
X169035714Y-126952380D02*
X169035714Y-125952380D01*
X169416666Y-125952380D01*
X169511904Y-126000000D01*
X169559523Y-126047619D01*
X169607142Y-126142857D01*
X169607142Y-126285714D01*
X169559523Y-126380952D01*
X169511904Y-126428571D01*
X169416666Y-126476190D01*
X169035714Y-126476190D01*
X169988095Y-126047619D02*
X170035714Y-126000000D01*
X170130952Y-125952380D01*
X170369047Y-125952380D01*
X170464285Y-126000000D01*
X170511904Y-126047619D01*
X170559523Y-126142857D01*
X170559523Y-126238095D01*
X170511904Y-126380952D01*
X169940476Y-126952380D01*
X170559523Y-126952380D01*
X171035714Y-126952380D02*
X171226190Y-126952380D01*
X171321428Y-126904761D01*
X171369047Y-126857142D01*
X171464285Y-126714285D01*
X171511904Y-126523809D01*
X171511904Y-126142857D01*
X171464285Y-126047619D01*
X171416666Y-126000000D01*
X171321428Y-125952380D01*
X171130952Y-125952380D01*
X171035714Y-126000000D01*
X170988095Y-126047619D01*
X170940476Y-126142857D01*
X170940476Y-126380952D01*
X170988095Y-126476190D01*
X171035714Y-126523809D01*
X171130952Y-126571428D01*
X171321428Y-126571428D01*
X171416666Y-126523809D01*
X171464285Y-126476190D01*
X171511904Y-126380952D01*
%TO.C,J7*%
X174666666Y-112452380D02*
X174666666Y-113166666D01*
X174619047Y-113309523D01*
X174523809Y-113404761D01*
X174380952Y-113452380D01*
X174285714Y-113452380D01*
X175047619Y-112452380D02*
X175714285Y-112452380D01*
X175285714Y-113452380D01*
%TO.C,R14*%
X91952380Y-71642857D02*
X91476190Y-71976190D01*
X91952380Y-72214285D02*
X90952380Y-72214285D01*
X90952380Y-71833333D01*
X91000000Y-71738095D01*
X91047619Y-71690476D01*
X91142857Y-71642857D01*
X91285714Y-71642857D01*
X91380952Y-71690476D01*
X91428571Y-71738095D01*
X91476190Y-71833333D01*
X91476190Y-72214285D01*
X91952380Y-70690476D02*
X91952380Y-71261904D01*
X91952380Y-70976190D02*
X90952380Y-70976190D01*
X91095238Y-71071428D01*
X91190476Y-71166666D01*
X91238095Y-71261904D01*
X91285714Y-69833333D02*
X91952380Y-69833333D01*
X90904761Y-70071428D02*
X91619047Y-70309523D01*
X91619047Y-69690476D01*
%TO.C,FX_OUT*%
X115928571Y-107642857D02*
X115928571Y-107976190D01*
X116452380Y-107976190D02*
X115452380Y-107976190D01*
X115452380Y-107500000D01*
X115452380Y-107214285D02*
X116452380Y-106547619D01*
X115452380Y-106547619D02*
X116452380Y-107214285D01*
X116547619Y-106404761D02*
X116547619Y-105642857D01*
X115452380Y-105214285D02*
X115452380Y-105023809D01*
X115500000Y-104928571D01*
X115595238Y-104833333D01*
X115785714Y-104785714D01*
X116119047Y-104785714D01*
X116309523Y-104833333D01*
X116404761Y-104928571D01*
X116452380Y-105023809D01*
X116452380Y-105214285D01*
X116404761Y-105309523D01*
X116309523Y-105404761D01*
X116119047Y-105452380D01*
X115785714Y-105452380D01*
X115595238Y-105404761D01*
X115500000Y-105309523D01*
X115452380Y-105214285D01*
X115452380Y-104357142D02*
X116261904Y-104357142D01*
X116357142Y-104309523D01*
X116404761Y-104261904D01*
X116452380Y-104166666D01*
X116452380Y-103976190D01*
X116404761Y-103880952D01*
X116357142Y-103833333D01*
X116261904Y-103785714D01*
X115452380Y-103785714D01*
X115452380Y-103452380D02*
X115452380Y-102880952D01*
X116452380Y-103166666D02*
X115452380Y-103166666D01*
%TO.C,U2*%
X148988095Y-98702380D02*
X148988095Y-99511904D01*
X149035714Y-99607142D01*
X149083333Y-99654761D01*
X149178571Y-99702380D01*
X149369047Y-99702380D01*
X149464285Y-99654761D01*
X149511904Y-99607142D01*
X149559523Y-99511904D01*
X149559523Y-98702380D01*
X149988095Y-98797619D02*
X150035714Y-98750000D01*
X150130952Y-98702380D01*
X150369047Y-98702380D01*
X150464285Y-98750000D01*
X150511904Y-98797619D01*
X150559523Y-98892857D01*
X150559523Y-98988095D01*
X150511904Y-99130952D01*
X149940476Y-99702380D01*
X150559523Y-99702380D01*
%TO.C,R26*%
X168702380Y-92312857D02*
X168226190Y-92646190D01*
X168702380Y-92884285D02*
X167702380Y-92884285D01*
X167702380Y-92503333D01*
X167750000Y-92408095D01*
X167797619Y-92360476D01*
X167892857Y-92312857D01*
X168035714Y-92312857D01*
X168130952Y-92360476D01*
X168178571Y-92408095D01*
X168226190Y-92503333D01*
X168226190Y-92884285D01*
X167797619Y-91931904D02*
X167750000Y-91884285D01*
X167702380Y-91789047D01*
X167702380Y-91550952D01*
X167750000Y-91455714D01*
X167797619Y-91408095D01*
X167892857Y-91360476D01*
X167988095Y-91360476D01*
X168130952Y-91408095D01*
X168702380Y-91979523D01*
X168702380Y-91360476D01*
X167702380Y-90503333D02*
X167702380Y-90693809D01*
X167750000Y-90789047D01*
X167797619Y-90836666D01*
X167940476Y-90931904D01*
X168130952Y-90979523D01*
X168511904Y-90979523D01*
X168607142Y-90931904D01*
X168654761Y-90884285D01*
X168702380Y-90789047D01*
X168702380Y-90598571D01*
X168654761Y-90503333D01*
X168607142Y-90455714D01*
X168511904Y-90408095D01*
X168273809Y-90408095D01*
X168178571Y-90455714D01*
X168130952Y-90503333D01*
X168083333Y-90598571D01*
X168083333Y-90789047D01*
X168130952Y-90884285D01*
X168178571Y-90931904D01*
X168273809Y-90979523D01*
%TO.C,C3*%
X156533333Y-87957142D02*
X156485714Y-88004761D01*
X156342857Y-88052380D01*
X156247619Y-88052380D01*
X156104761Y-88004761D01*
X156009523Y-87909523D01*
X155961904Y-87814285D01*
X155914285Y-87623809D01*
X155914285Y-87480952D01*
X155961904Y-87290476D01*
X156009523Y-87195238D01*
X156104761Y-87100000D01*
X156247619Y-87052380D01*
X156342857Y-87052380D01*
X156485714Y-87100000D01*
X156533333Y-87147619D01*
X156866666Y-87052380D02*
X157485714Y-87052380D01*
X157152380Y-87433333D01*
X157295238Y-87433333D01*
X157390476Y-87480952D01*
X157438095Y-87528571D01*
X157485714Y-87623809D01*
X157485714Y-87861904D01*
X157438095Y-87957142D01*
X157390476Y-88004761D01*
X157295238Y-88052380D01*
X157009523Y-88052380D01*
X156914285Y-88004761D01*
X156866666Y-87957142D01*
%TO.C,R6*%
X126583333Y-70452380D02*
X126250000Y-69976190D01*
X126011904Y-70452380D02*
X126011904Y-69452380D01*
X126392857Y-69452380D01*
X126488095Y-69500000D01*
X126535714Y-69547619D01*
X126583333Y-69642857D01*
X126583333Y-69785714D01*
X126535714Y-69880952D01*
X126488095Y-69928571D01*
X126392857Y-69976190D01*
X126011904Y-69976190D01*
X127440476Y-69452380D02*
X127250000Y-69452380D01*
X127154761Y-69500000D01*
X127107142Y-69547619D01*
X127011904Y-69690476D01*
X126964285Y-69880952D01*
X126964285Y-70261904D01*
X127011904Y-70357142D01*
X127059523Y-70404761D01*
X127154761Y-70452380D01*
X127345238Y-70452380D01*
X127440476Y-70404761D01*
X127488095Y-70357142D01*
X127535714Y-70261904D01*
X127535714Y-70023809D01*
X127488095Y-69928571D01*
X127440476Y-69880952D01*
X127345238Y-69833333D01*
X127154761Y-69833333D01*
X127059523Y-69880952D01*
X127011904Y-69928571D01*
X126964285Y-70023809D01*
%TO.C,R23*%
X139952380Y-96392857D02*
X139476190Y-96726190D01*
X139952380Y-96964285D02*
X138952380Y-96964285D01*
X138952380Y-96583333D01*
X139000000Y-96488095D01*
X139047619Y-96440476D01*
X139142857Y-96392857D01*
X139285714Y-96392857D01*
X139380952Y-96440476D01*
X139428571Y-96488095D01*
X139476190Y-96583333D01*
X139476190Y-96964285D01*
X139047619Y-96011904D02*
X139000000Y-95964285D01*
X138952380Y-95869047D01*
X138952380Y-95630952D01*
X139000000Y-95535714D01*
X139047619Y-95488095D01*
X139142857Y-95440476D01*
X139238095Y-95440476D01*
X139380952Y-95488095D01*
X139952380Y-96059523D01*
X139952380Y-95440476D01*
X138952380Y-95107142D02*
X138952380Y-94488095D01*
X139333333Y-94821428D01*
X139333333Y-94678571D01*
X139380952Y-94583333D01*
X139428571Y-94535714D01*
X139523809Y-94488095D01*
X139761904Y-94488095D01*
X139857142Y-94535714D01*
X139904761Y-94583333D01*
X139952380Y-94678571D01*
X139952380Y-94964285D01*
X139904761Y-95059523D01*
X139857142Y-95107142D01*
%TO.C,R18*%
X91357142Y-102452380D02*
X91023809Y-101976190D01*
X90785714Y-102452380D02*
X90785714Y-101452380D01*
X91166666Y-101452380D01*
X91261904Y-101500000D01*
X91309523Y-101547619D01*
X91357142Y-101642857D01*
X91357142Y-101785714D01*
X91309523Y-101880952D01*
X91261904Y-101928571D01*
X91166666Y-101976190D01*
X90785714Y-101976190D01*
X92309523Y-102452380D02*
X91738095Y-102452380D01*
X92023809Y-102452380D02*
X92023809Y-101452380D01*
X91928571Y-101595238D01*
X91833333Y-101690476D01*
X91738095Y-101738095D01*
X92880952Y-101880952D02*
X92785714Y-101833333D01*
X92738095Y-101785714D01*
X92690476Y-101690476D01*
X92690476Y-101642857D01*
X92738095Y-101547619D01*
X92785714Y-101500000D01*
X92880952Y-101452380D01*
X93071428Y-101452380D01*
X93166666Y-101500000D01*
X93214285Y-101547619D01*
X93261904Y-101642857D01*
X93261904Y-101690476D01*
X93214285Y-101785714D01*
X93166666Y-101833333D01*
X93071428Y-101880952D01*
X92880952Y-101880952D01*
X92785714Y-101928571D01*
X92738095Y-101976190D01*
X92690476Y-102071428D01*
X92690476Y-102261904D01*
X92738095Y-102357142D01*
X92785714Y-102404761D01*
X92880952Y-102452380D01*
X93071428Y-102452380D01*
X93166666Y-102404761D01*
X93214285Y-102357142D01*
X93261904Y-102261904D01*
X93261904Y-102071428D01*
X93214285Y-101976190D01*
X93166666Y-101928571D01*
X93071428Y-101880952D01*
%TO.C,R27*%
X175452380Y-91392857D02*
X174976190Y-91726190D01*
X175452380Y-91964285D02*
X174452380Y-91964285D01*
X174452380Y-91583333D01*
X174500000Y-91488095D01*
X174547619Y-91440476D01*
X174642857Y-91392857D01*
X174785714Y-91392857D01*
X174880952Y-91440476D01*
X174928571Y-91488095D01*
X174976190Y-91583333D01*
X174976190Y-91964285D01*
X174547619Y-91011904D02*
X174500000Y-90964285D01*
X174452380Y-90869047D01*
X174452380Y-90630952D01*
X174500000Y-90535714D01*
X174547619Y-90488095D01*
X174642857Y-90440476D01*
X174738095Y-90440476D01*
X174880952Y-90488095D01*
X175452380Y-91059523D01*
X175452380Y-90440476D01*
X174452380Y-90107142D02*
X174452380Y-89440476D01*
X175452380Y-89869047D01*
%TO.C,R30*%
X125357142Y-103052380D02*
X125023809Y-102576190D01*
X124785714Y-103052380D02*
X124785714Y-102052380D01*
X125166666Y-102052380D01*
X125261904Y-102100000D01*
X125309523Y-102147619D01*
X125357142Y-102242857D01*
X125357142Y-102385714D01*
X125309523Y-102480952D01*
X125261904Y-102528571D01*
X125166666Y-102576190D01*
X124785714Y-102576190D01*
X125690476Y-102052380D02*
X126309523Y-102052380D01*
X125976190Y-102433333D01*
X126119047Y-102433333D01*
X126214285Y-102480952D01*
X126261904Y-102528571D01*
X126309523Y-102623809D01*
X126309523Y-102861904D01*
X126261904Y-102957142D01*
X126214285Y-103004761D01*
X126119047Y-103052380D01*
X125833333Y-103052380D01*
X125738095Y-103004761D01*
X125690476Y-102957142D01*
X126928571Y-102052380D02*
X127023809Y-102052380D01*
X127119047Y-102100000D01*
X127166666Y-102147619D01*
X127214285Y-102242857D01*
X127261904Y-102433333D01*
X127261904Y-102671428D01*
X127214285Y-102861904D01*
X127166666Y-102957142D01*
X127119047Y-103004761D01*
X127023809Y-103052380D01*
X126928571Y-103052380D01*
X126833333Y-103004761D01*
X126785714Y-102957142D01*
X126738095Y-102861904D01*
X126690476Y-102671428D01*
X126690476Y-102433333D01*
X126738095Y-102242857D01*
X126785714Y-102147619D01*
X126833333Y-102100000D01*
X126928571Y-102052380D01*
%TO.C,R1*%
X129702380Y-59916666D02*
X129226190Y-60250000D01*
X129702380Y-60488095D02*
X128702380Y-60488095D01*
X128702380Y-60107142D01*
X128750000Y-60011904D01*
X128797619Y-59964285D01*
X128892857Y-59916666D01*
X129035714Y-59916666D01*
X129130952Y-59964285D01*
X129178571Y-60011904D01*
X129226190Y-60107142D01*
X129226190Y-60488095D01*
X129702380Y-58964285D02*
X129702380Y-59535714D01*
X129702380Y-59250000D02*
X128702380Y-59250000D01*
X128845238Y-59345238D01*
X128940476Y-59440476D01*
X128988095Y-59535714D01*
%TO.C,R4*%
X127202380Y-100666666D02*
X126726190Y-101000000D01*
X127202380Y-101238095D02*
X126202380Y-101238095D01*
X126202380Y-100857142D01*
X126250000Y-100761904D01*
X126297619Y-100714285D01*
X126392857Y-100666666D01*
X126535714Y-100666666D01*
X126630952Y-100714285D01*
X126678571Y-100761904D01*
X126726190Y-100857142D01*
X126726190Y-101238095D01*
X126535714Y-99809523D02*
X127202380Y-99809523D01*
X126154761Y-100047619D02*
X126869047Y-100285714D01*
X126869047Y-99666666D01*
%TO.C,R13*%
X96152380Y-71392857D02*
X95676190Y-71726190D01*
X96152380Y-71964285D02*
X95152380Y-71964285D01*
X95152380Y-71583333D01*
X95200000Y-71488095D01*
X95247619Y-71440476D01*
X95342857Y-71392857D01*
X95485714Y-71392857D01*
X95580952Y-71440476D01*
X95628571Y-71488095D01*
X95676190Y-71583333D01*
X95676190Y-71964285D01*
X96152380Y-70440476D02*
X96152380Y-71011904D01*
X96152380Y-70726190D02*
X95152380Y-70726190D01*
X95295238Y-70821428D01*
X95390476Y-70916666D01*
X95438095Y-71011904D01*
X95152380Y-70107142D02*
X95152380Y-69488095D01*
X95533333Y-69821428D01*
X95533333Y-69678571D01*
X95580952Y-69583333D01*
X95628571Y-69535714D01*
X95723809Y-69488095D01*
X95961904Y-69488095D01*
X96057142Y-69535714D01*
X96104761Y-69583333D01*
X96152380Y-69678571D01*
X96152380Y-69964285D01*
X96104761Y-70059523D01*
X96057142Y-70107142D01*
%TO.C,R3*%
X100452380Y-71166666D02*
X99976190Y-71500000D01*
X100452380Y-71738095D02*
X99452380Y-71738095D01*
X99452380Y-71357142D01*
X99500000Y-71261904D01*
X99547619Y-71214285D01*
X99642857Y-71166666D01*
X99785714Y-71166666D01*
X99880952Y-71214285D01*
X99928571Y-71261904D01*
X99976190Y-71357142D01*
X99976190Y-71738095D01*
X99452380Y-70833333D02*
X99452380Y-70214285D01*
X99833333Y-70547619D01*
X99833333Y-70404761D01*
X99880952Y-70309523D01*
X99928571Y-70261904D01*
X100023809Y-70214285D01*
X100261904Y-70214285D01*
X100357142Y-70261904D01*
X100404761Y-70309523D01*
X100452380Y-70404761D01*
X100452380Y-70690476D01*
X100404761Y-70785714D01*
X100357142Y-70833333D01*
%TO.C,R31*%
X169357142Y-130202380D02*
X169023809Y-129726190D01*
X168785714Y-130202380D02*
X168785714Y-129202380D01*
X169166666Y-129202380D01*
X169261904Y-129250000D01*
X169309523Y-129297619D01*
X169357142Y-129392857D01*
X169357142Y-129535714D01*
X169309523Y-129630952D01*
X169261904Y-129678571D01*
X169166666Y-129726190D01*
X168785714Y-129726190D01*
X169690476Y-129202380D02*
X170309523Y-129202380D01*
X169976190Y-129583333D01*
X170119047Y-129583333D01*
X170214285Y-129630952D01*
X170261904Y-129678571D01*
X170309523Y-129773809D01*
X170309523Y-130011904D01*
X170261904Y-130107142D01*
X170214285Y-130154761D01*
X170119047Y-130202380D01*
X169833333Y-130202380D01*
X169738095Y-130154761D01*
X169690476Y-130107142D01*
X171261904Y-130202380D02*
X170690476Y-130202380D01*
X170976190Y-130202380D02*
X170976190Y-129202380D01*
X170880952Y-129345238D01*
X170785714Y-129440476D01*
X170690476Y-129488095D01*
%TO.C,U5*%
X143702380Y-118761904D02*
X144511904Y-118761904D01*
X144607142Y-118714285D01*
X144654761Y-118666666D01*
X144702380Y-118571428D01*
X144702380Y-118380952D01*
X144654761Y-118285714D01*
X144607142Y-118238095D01*
X144511904Y-118190476D01*
X143702380Y-118190476D01*
X143702380Y-117238095D02*
X143702380Y-117714285D01*
X144178571Y-117761904D01*
X144130952Y-117714285D01*
X144083333Y-117619047D01*
X144083333Y-117380952D01*
X144130952Y-117285714D01*
X144178571Y-117238095D01*
X144273809Y-117190476D01*
X144511904Y-117190476D01*
X144607142Y-117238095D01*
X144654761Y-117285714D01*
X144702380Y-117380952D01*
X144702380Y-117619047D01*
X144654761Y-117714285D01*
X144607142Y-117761904D01*
%TO.C,R33*%
X176452380Y-125892857D02*
X175976190Y-126226190D01*
X176452380Y-126464285D02*
X175452380Y-126464285D01*
X175452380Y-126083333D01*
X175500000Y-125988095D01*
X175547619Y-125940476D01*
X175642857Y-125892857D01*
X175785714Y-125892857D01*
X175880952Y-125940476D01*
X175928571Y-125988095D01*
X175976190Y-126083333D01*
X175976190Y-126464285D01*
X175452380Y-125559523D02*
X175452380Y-124940476D01*
X175833333Y-125273809D01*
X175833333Y-125130952D01*
X175880952Y-125035714D01*
X175928571Y-124988095D01*
X176023809Y-124940476D01*
X176261904Y-124940476D01*
X176357142Y-124988095D01*
X176404761Y-125035714D01*
X176452380Y-125130952D01*
X176452380Y-125416666D01*
X176404761Y-125511904D01*
X176357142Y-125559523D01*
X175452380Y-124607142D02*
X175452380Y-123988095D01*
X175833333Y-124321428D01*
X175833333Y-124178571D01*
X175880952Y-124083333D01*
X175928571Y-124035714D01*
X176023809Y-123988095D01*
X176261904Y-123988095D01*
X176357142Y-124035714D01*
X176404761Y-124083333D01*
X176452380Y-124178571D01*
X176452380Y-124464285D01*
X176404761Y-124559523D01*
X176357142Y-124607142D01*
%TO.C,R5*%
X119333333Y-100202380D02*
X119000000Y-99726190D01*
X118761904Y-100202380D02*
X118761904Y-99202380D01*
X119142857Y-99202380D01*
X119238095Y-99250000D01*
X119285714Y-99297619D01*
X119333333Y-99392857D01*
X119333333Y-99535714D01*
X119285714Y-99630952D01*
X119238095Y-99678571D01*
X119142857Y-99726190D01*
X118761904Y-99726190D01*
X120238095Y-99202380D02*
X119761904Y-99202380D01*
X119714285Y-99678571D01*
X119761904Y-99630952D01*
X119857142Y-99583333D01*
X120095238Y-99583333D01*
X120190476Y-99630952D01*
X120238095Y-99678571D01*
X120285714Y-99773809D01*
X120285714Y-100011904D01*
X120238095Y-100107142D01*
X120190476Y-100154761D01*
X120095238Y-100202380D01*
X119857142Y-100202380D01*
X119761904Y-100154761D01*
X119714285Y-100107142D01*
%TO.C,R22*%
X163107142Y-71702380D02*
X162773809Y-71226190D01*
X162535714Y-71702380D02*
X162535714Y-70702380D01*
X162916666Y-70702380D01*
X163011904Y-70750000D01*
X163059523Y-70797619D01*
X163107142Y-70892857D01*
X163107142Y-71035714D01*
X163059523Y-71130952D01*
X163011904Y-71178571D01*
X162916666Y-71226190D01*
X162535714Y-71226190D01*
X163488095Y-70797619D02*
X163535714Y-70750000D01*
X163630952Y-70702380D01*
X163869047Y-70702380D01*
X163964285Y-70750000D01*
X164011904Y-70797619D01*
X164059523Y-70892857D01*
X164059523Y-70988095D01*
X164011904Y-71130952D01*
X163440476Y-71702380D01*
X164059523Y-71702380D01*
X164440476Y-70797619D02*
X164488095Y-70750000D01*
X164583333Y-70702380D01*
X164821428Y-70702380D01*
X164916666Y-70750000D01*
X164964285Y-70797619D01*
X165011904Y-70892857D01*
X165011904Y-70988095D01*
X164964285Y-71130952D01*
X164392857Y-71702380D01*
X165011904Y-71702380D01*
%TO.C,FX_IN*%
X98678571Y-107476190D02*
X98678571Y-107809523D01*
X99202380Y-107809523D02*
X98202380Y-107809523D01*
X98202380Y-107333333D01*
X98202380Y-107047619D02*
X99202380Y-106380952D01*
X98202380Y-106380952D02*
X99202380Y-107047619D01*
X99297619Y-106238095D02*
X99297619Y-105476190D01*
X99202380Y-105238095D02*
X98202380Y-105238095D01*
X99202380Y-104761904D02*
X98202380Y-104761904D01*
X99202380Y-104190476D01*
X98202380Y-104190476D01*
%TO.C,R9*%
X116452380Y-63916666D02*
X115976190Y-64250000D01*
X116452380Y-64488095D02*
X115452380Y-64488095D01*
X115452380Y-64107142D01*
X115500000Y-64011904D01*
X115547619Y-63964285D01*
X115642857Y-63916666D01*
X115785714Y-63916666D01*
X115880952Y-63964285D01*
X115928571Y-64011904D01*
X115976190Y-64107142D01*
X115976190Y-64488095D01*
X116452380Y-63440476D02*
X116452380Y-63250000D01*
X116404761Y-63154761D01*
X116357142Y-63107142D01*
X116214285Y-63011904D01*
X116023809Y-62964285D01*
X115642857Y-62964285D01*
X115547619Y-63011904D01*
X115500000Y-63059523D01*
X115452380Y-63154761D01*
X115452380Y-63345238D01*
X115500000Y-63440476D01*
X115547619Y-63488095D01*
X115642857Y-63535714D01*
X115880952Y-63535714D01*
X115976190Y-63488095D01*
X116023809Y-63440476D01*
X116071428Y-63345238D01*
X116071428Y-63154761D01*
X116023809Y-63059523D01*
X115976190Y-63011904D01*
X115880952Y-62964285D01*
%TO.C,INPUT*%
X192321428Y-121122380D02*
X192321428Y-120122380D01*
X192797619Y-121122380D02*
X192797619Y-120122380D01*
X193369047Y-121122380D01*
X193369047Y-120122380D01*
X193845238Y-121122380D02*
X193845238Y-120122380D01*
X194226190Y-120122380D01*
X194321428Y-120170000D01*
X194369047Y-120217619D01*
X194416666Y-120312857D01*
X194416666Y-120455714D01*
X194369047Y-120550952D01*
X194321428Y-120598571D01*
X194226190Y-120646190D01*
X193845238Y-120646190D01*
X194845238Y-120122380D02*
X194845238Y-120931904D01*
X194892857Y-121027142D01*
X194940476Y-121074761D01*
X195035714Y-121122380D01*
X195226190Y-121122380D01*
X195321428Y-121074761D01*
X195369047Y-121027142D01*
X195416666Y-120931904D01*
X195416666Y-120122380D01*
X195750000Y-120122380D02*
X196321428Y-120122380D01*
X196035714Y-121122380D02*
X196035714Y-120122380D01*
%TO.C,9V1*%
X123654761Y-128122380D02*
X123845238Y-128122380D01*
X123940476Y-128074761D01*
X123988095Y-128027142D01*
X124083333Y-127884285D01*
X124130952Y-127693809D01*
X124130952Y-127312857D01*
X124083333Y-127217619D01*
X124035714Y-127170000D01*
X123940476Y-127122380D01*
X123750000Y-127122380D01*
X123654761Y-127170000D01*
X123607142Y-127217619D01*
X123559523Y-127312857D01*
X123559523Y-127550952D01*
X123607142Y-127646190D01*
X123654761Y-127693809D01*
X123750000Y-127741428D01*
X123940476Y-127741428D01*
X124035714Y-127693809D01*
X124083333Y-127646190D01*
X124130952Y-127550952D01*
X124416666Y-127122380D02*
X124750000Y-128122380D01*
X125083333Y-127122380D01*
X125940476Y-128122380D02*
X125369047Y-128122380D01*
X125654761Y-128122380D02*
X125654761Y-127122380D01*
X125559523Y-127265238D01*
X125464285Y-127360476D01*
X125369047Y-127408095D01*
%TO.C,R15*%
X144857142Y-56332380D02*
X144523809Y-55856190D01*
X144285714Y-56332380D02*
X144285714Y-55332380D01*
X144666666Y-55332380D01*
X144761904Y-55380000D01*
X144809523Y-55427619D01*
X144857142Y-55522857D01*
X144857142Y-55665714D01*
X144809523Y-55760952D01*
X144761904Y-55808571D01*
X144666666Y-55856190D01*
X144285714Y-55856190D01*
X145809523Y-56332380D02*
X145238095Y-56332380D01*
X145523809Y-56332380D02*
X145523809Y-55332380D01*
X145428571Y-55475238D01*
X145333333Y-55570476D01*
X145238095Y-55618095D01*
X146714285Y-55332380D02*
X146238095Y-55332380D01*
X146190476Y-55808571D01*
X146238095Y-55760952D01*
X146333333Y-55713333D01*
X146571428Y-55713333D01*
X146666666Y-55760952D01*
X146714285Y-55808571D01*
X146761904Y-55903809D01*
X146761904Y-56141904D01*
X146714285Y-56237142D01*
X146666666Y-56284761D01*
X146571428Y-56332380D01*
X146333333Y-56332380D01*
X146238095Y-56284761D01*
X146190476Y-56237142D01*
%TO.C,R7*%
X120952380Y-60166666D02*
X120476190Y-60500000D01*
X120952380Y-60738095D02*
X119952380Y-60738095D01*
X119952380Y-60357142D01*
X120000000Y-60261904D01*
X120047619Y-60214285D01*
X120142857Y-60166666D01*
X120285714Y-60166666D01*
X120380952Y-60214285D01*
X120428571Y-60261904D01*
X120476190Y-60357142D01*
X120476190Y-60738095D01*
X119952380Y-59833333D02*
X119952380Y-59166666D01*
X120952380Y-59595238D01*
%TO.C,R28*%
X169607142Y-124202380D02*
X169273809Y-123726190D01*
X169035714Y-124202380D02*
X169035714Y-123202380D01*
X169416666Y-123202380D01*
X169511904Y-123250000D01*
X169559523Y-123297619D01*
X169607142Y-123392857D01*
X169607142Y-123535714D01*
X169559523Y-123630952D01*
X169511904Y-123678571D01*
X169416666Y-123726190D01*
X169035714Y-123726190D01*
X169988095Y-123297619D02*
X170035714Y-123250000D01*
X170130952Y-123202380D01*
X170369047Y-123202380D01*
X170464285Y-123250000D01*
X170511904Y-123297619D01*
X170559523Y-123392857D01*
X170559523Y-123488095D01*
X170511904Y-123630952D01*
X169940476Y-124202380D01*
X170559523Y-124202380D01*
X171130952Y-123630952D02*
X171035714Y-123583333D01*
X170988095Y-123535714D01*
X170940476Y-123440476D01*
X170940476Y-123392857D01*
X170988095Y-123297619D01*
X171035714Y-123250000D01*
X171130952Y-123202380D01*
X171321428Y-123202380D01*
X171416666Y-123250000D01*
X171464285Y-123297619D01*
X171511904Y-123392857D01*
X171511904Y-123440476D01*
X171464285Y-123535714D01*
X171416666Y-123583333D01*
X171321428Y-123630952D01*
X171130952Y-123630952D01*
X171035714Y-123678571D01*
X170988095Y-123726190D01*
X170940476Y-123821428D01*
X170940476Y-124011904D01*
X170988095Y-124107142D01*
X171035714Y-124154761D01*
X171130952Y-124202380D01*
X171321428Y-124202380D01*
X171416666Y-124154761D01*
X171464285Y-124107142D01*
X171511904Y-124011904D01*
X171511904Y-123821428D01*
X171464285Y-123726190D01*
X171416666Y-123678571D01*
X171321428Y-123630952D01*
%TO.C,C5*%
X106033333Y-68557142D02*
X105985714Y-68604761D01*
X105842857Y-68652380D01*
X105747619Y-68652380D01*
X105604761Y-68604761D01*
X105509523Y-68509523D01*
X105461904Y-68414285D01*
X105414285Y-68223809D01*
X105414285Y-68080952D01*
X105461904Y-67890476D01*
X105509523Y-67795238D01*
X105604761Y-67700000D01*
X105747619Y-67652380D01*
X105842857Y-67652380D01*
X105985714Y-67700000D01*
X106033333Y-67747619D01*
X106938095Y-67652380D02*
X106461904Y-67652380D01*
X106414285Y-68128571D01*
X106461904Y-68080952D01*
X106557142Y-68033333D01*
X106795238Y-68033333D01*
X106890476Y-68080952D01*
X106938095Y-68128571D01*
X106985714Y-68223809D01*
X106985714Y-68461904D01*
X106938095Y-68557142D01*
X106890476Y-68604761D01*
X106795238Y-68652380D01*
X106557142Y-68652380D01*
X106461904Y-68604761D01*
X106414285Y-68557142D01*
%TO.C,C6*%
X105833333Y-53107142D02*
X105785714Y-53154761D01*
X105642857Y-53202380D01*
X105547619Y-53202380D01*
X105404761Y-53154761D01*
X105309523Y-53059523D01*
X105261904Y-52964285D01*
X105214285Y-52773809D01*
X105214285Y-52630952D01*
X105261904Y-52440476D01*
X105309523Y-52345238D01*
X105404761Y-52250000D01*
X105547619Y-52202380D01*
X105642857Y-52202380D01*
X105785714Y-52250000D01*
X105833333Y-52297619D01*
X106690476Y-52202380D02*
X106500000Y-52202380D01*
X106404761Y-52250000D01*
X106357142Y-52297619D01*
X106261904Y-52440476D01*
X106214285Y-52630952D01*
X106214285Y-53011904D01*
X106261904Y-53107142D01*
X106309523Y-53154761D01*
X106404761Y-53202380D01*
X106595238Y-53202380D01*
X106690476Y-53154761D01*
X106738095Y-53107142D01*
X106785714Y-53011904D01*
X106785714Y-52773809D01*
X106738095Y-52678571D01*
X106690476Y-52630952D01*
X106595238Y-52583333D01*
X106404761Y-52583333D01*
X106309523Y-52630952D01*
X106261904Y-52678571D01*
X106214285Y-52773809D01*
%TO.C,R17*%
X138952380Y-77892857D02*
X138476190Y-78226190D01*
X138952380Y-78464285D02*
X137952380Y-78464285D01*
X137952380Y-78083333D01*
X138000000Y-77988095D01*
X138047619Y-77940476D01*
X138142857Y-77892857D01*
X138285714Y-77892857D01*
X138380952Y-77940476D01*
X138428571Y-77988095D01*
X138476190Y-78083333D01*
X138476190Y-78464285D01*
X138952380Y-76940476D02*
X138952380Y-77511904D01*
X138952380Y-77226190D02*
X137952380Y-77226190D01*
X138095238Y-77321428D01*
X138190476Y-77416666D01*
X138238095Y-77511904D01*
X137952380Y-76607142D02*
X137952380Y-75940476D01*
X138952380Y-76369047D01*
%TO.C,R16*%
X134702380Y-65142857D02*
X134226190Y-65476190D01*
X134702380Y-65714285D02*
X133702380Y-65714285D01*
X133702380Y-65333333D01*
X133750000Y-65238095D01*
X133797619Y-65190476D01*
X133892857Y-65142857D01*
X134035714Y-65142857D01*
X134130952Y-65190476D01*
X134178571Y-65238095D01*
X134226190Y-65333333D01*
X134226190Y-65714285D01*
X134702380Y-64190476D02*
X134702380Y-64761904D01*
X134702380Y-64476190D02*
X133702380Y-64476190D01*
X133845238Y-64571428D01*
X133940476Y-64666666D01*
X133988095Y-64761904D01*
X133702380Y-63333333D02*
X133702380Y-63523809D01*
X133750000Y-63619047D01*
X133797619Y-63666666D01*
X133940476Y-63761904D01*
X134130952Y-63809523D01*
X134511904Y-63809523D01*
X134607142Y-63761904D01*
X134654761Y-63714285D01*
X134702380Y-63619047D01*
X134702380Y-63428571D01*
X134654761Y-63333333D01*
X134607142Y-63285714D01*
X134511904Y-63238095D01*
X134273809Y-63238095D01*
X134178571Y-63285714D01*
X134130952Y-63333333D01*
X134083333Y-63428571D01*
X134083333Y-63619047D01*
X134130952Y-63714285D01*
X134178571Y-63761904D01*
X134273809Y-63809523D01*
%TO.C,D1*%
X178702380Y-125488095D02*
X177702380Y-125488095D01*
X177702380Y-125250000D01*
X177750000Y-125107142D01*
X177845238Y-125011904D01*
X177940476Y-124964285D01*
X178130952Y-124916666D01*
X178273809Y-124916666D01*
X178464285Y-124964285D01*
X178559523Y-125011904D01*
X178654761Y-125107142D01*
X178702380Y-125250000D01*
X178702380Y-125488095D01*
X178702380Y-123964285D02*
X178702380Y-124535714D01*
X178702380Y-124250000D02*
X177702380Y-124250000D01*
X177845238Y-124345238D01*
X177940476Y-124440476D01*
X177988095Y-124535714D01*
X183302380Y-120181904D02*
X182302380Y-120181904D01*
X183302380Y-119610476D02*
X182730952Y-120039047D01*
X182302380Y-119610476D02*
X182873809Y-120181904D01*
%TO.C,C7*%
X186833333Y-125357142D02*
X186785714Y-125404761D01*
X186642857Y-125452380D01*
X186547619Y-125452380D01*
X186404761Y-125404761D01*
X186309523Y-125309523D01*
X186261904Y-125214285D01*
X186214285Y-125023809D01*
X186214285Y-124880952D01*
X186261904Y-124690476D01*
X186309523Y-124595238D01*
X186404761Y-124500000D01*
X186547619Y-124452380D01*
X186642857Y-124452380D01*
X186785714Y-124500000D01*
X186833333Y-124547619D01*
X187166666Y-124452380D02*
X187833333Y-124452380D01*
X187404761Y-125452380D01*
%TO.C,C2*%
X110083333Y-73607142D02*
X110035714Y-73654761D01*
X109892857Y-73702380D01*
X109797619Y-73702380D01*
X109654761Y-73654761D01*
X109559523Y-73559523D01*
X109511904Y-73464285D01*
X109464285Y-73273809D01*
X109464285Y-73130952D01*
X109511904Y-72940476D01*
X109559523Y-72845238D01*
X109654761Y-72750000D01*
X109797619Y-72702380D01*
X109892857Y-72702380D01*
X110035714Y-72750000D01*
X110083333Y-72797619D01*
X110464285Y-72797619D02*
X110511904Y-72750000D01*
X110607142Y-72702380D01*
X110845238Y-72702380D01*
X110940476Y-72750000D01*
X110988095Y-72797619D01*
X111035714Y-72892857D01*
X111035714Y-72988095D01*
X110988095Y-73130952D01*
X110416666Y-73702380D01*
X111035714Y-73702380D01*
%TO.C,R11*%
X103357142Y-102452380D02*
X103023809Y-101976190D01*
X102785714Y-102452380D02*
X102785714Y-101452380D01*
X103166666Y-101452380D01*
X103261904Y-101500000D01*
X103309523Y-101547619D01*
X103357142Y-101642857D01*
X103357142Y-101785714D01*
X103309523Y-101880952D01*
X103261904Y-101928571D01*
X103166666Y-101976190D01*
X102785714Y-101976190D01*
X104309523Y-102452380D02*
X103738095Y-102452380D01*
X104023809Y-102452380D02*
X104023809Y-101452380D01*
X103928571Y-101595238D01*
X103833333Y-101690476D01*
X103738095Y-101738095D01*
X105261904Y-102452380D02*
X104690476Y-102452380D01*
X104976190Y-102452380D02*
X104976190Y-101452380D01*
X104880952Y-101595238D01*
X104785714Y-101690476D01*
X104690476Y-101738095D01*
%TO.C,D2*%
X141261442Y-121952380D02*
X141261442Y-120952380D01*
X141499538Y-120952380D01*
X141642395Y-121000000D01*
X141737633Y-121095238D01*
X141785252Y-121190476D01*
X141832871Y-121380952D01*
X141832871Y-121523809D01*
X141785252Y-121714285D01*
X141737633Y-121809523D01*
X141642395Y-121904761D01*
X141499538Y-121952380D01*
X141261442Y-121952380D01*
X142213823Y-121047619D02*
X142261442Y-121000000D01*
X142356680Y-120952380D01*
X142594776Y-120952380D01*
X142690014Y-121000000D01*
X142737633Y-121047619D01*
X142785252Y-121142857D01*
X142785252Y-121238095D01*
X142737633Y-121380952D01*
X142166204Y-121952380D01*
X142785252Y-121952380D01*
%TO.C,R32*%
X169357142Y-121202380D02*
X169023809Y-120726190D01*
X168785714Y-121202380D02*
X168785714Y-120202380D01*
X169166666Y-120202380D01*
X169261904Y-120250000D01*
X169309523Y-120297619D01*
X169357142Y-120392857D01*
X169357142Y-120535714D01*
X169309523Y-120630952D01*
X169261904Y-120678571D01*
X169166666Y-120726190D01*
X168785714Y-120726190D01*
X169690476Y-120202380D02*
X170309523Y-120202380D01*
X169976190Y-120583333D01*
X170119047Y-120583333D01*
X170214285Y-120630952D01*
X170261904Y-120678571D01*
X170309523Y-120773809D01*
X170309523Y-121011904D01*
X170261904Y-121107142D01*
X170214285Y-121154761D01*
X170119047Y-121202380D01*
X169833333Y-121202380D01*
X169738095Y-121154761D01*
X169690476Y-121107142D01*
X170690476Y-120297619D02*
X170738095Y-120250000D01*
X170833333Y-120202380D01*
X171071428Y-120202380D01*
X171166666Y-120250000D01*
X171214285Y-120297619D01*
X171261904Y-120392857D01*
X171261904Y-120488095D01*
X171214285Y-120630952D01*
X170642857Y-121202380D01*
X171261904Y-121202380D01*
%TO.C,GND*%
X104000000Y-107261904D02*
X103952380Y-107357142D01*
X103952380Y-107500000D01*
X104000000Y-107642857D01*
X104095238Y-107738095D01*
X104190476Y-107785714D01*
X104380952Y-107833333D01*
X104523809Y-107833333D01*
X104714285Y-107785714D01*
X104809523Y-107738095D01*
X104904761Y-107642857D01*
X104952380Y-107500000D01*
X104952380Y-107404761D01*
X104904761Y-107261904D01*
X104857142Y-107214285D01*
X104523809Y-107214285D01*
X104523809Y-107404761D01*
X104952380Y-106785714D02*
X103952380Y-106785714D01*
X104952380Y-106214285D01*
X103952380Y-106214285D01*
X104952380Y-105738095D02*
X103952380Y-105738095D01*
X103952380Y-105500000D01*
X104000000Y-105357142D01*
X104095238Y-105261904D01*
X104190476Y-105214285D01*
X104380952Y-105166666D01*
X104523809Y-105166666D01*
X104714285Y-105214285D01*
X104809523Y-105261904D01*
X104904761Y-105357142D01*
X104952380Y-105500000D01*
X104952380Y-105738095D01*
%TO.C,R24*%
X170952380Y-77392857D02*
X170476190Y-77726190D01*
X170952380Y-77964285D02*
X169952380Y-77964285D01*
X169952380Y-77583333D01*
X170000000Y-77488095D01*
X170047619Y-77440476D01*
X170142857Y-77392857D01*
X170285714Y-77392857D01*
X170380952Y-77440476D01*
X170428571Y-77488095D01*
X170476190Y-77583333D01*
X170476190Y-77964285D01*
X170047619Y-77011904D02*
X170000000Y-76964285D01*
X169952380Y-76869047D01*
X169952380Y-76630952D01*
X170000000Y-76535714D01*
X170047619Y-76488095D01*
X170142857Y-76440476D01*
X170238095Y-76440476D01*
X170380952Y-76488095D01*
X170952380Y-77059523D01*
X170952380Y-76440476D01*
X170285714Y-75583333D02*
X170952380Y-75583333D01*
X169904761Y-75821428D02*
X170619047Y-76059523D01*
X170619047Y-75440476D01*
D12*
%TO.C,C9*%
X161870000Y-99380000D02*
X154630000Y-99380000D01*
X161870000Y-102120000D02*
X154630000Y-102120000D01*
X161870000Y-102120000D02*
X161870000Y-99380000D01*
X154630000Y-102120000D02*
X154630000Y-99380000D01*
%TO.C,U3*%
X167650000Y-106310000D02*
X157370000Y-106310000D01*
X165160000Y-116650000D02*
X165160000Y-106370000D01*
X159860000Y-106370000D02*
X159860000Y-116650000D01*
X157370000Y-106310000D02*
X157370000Y-116710000D01*
X167650000Y-116710000D02*
X167650000Y-106310000D01*
X161510000Y-106370000D02*
X159860000Y-106370000D01*
X165160000Y-106370000D02*
X163510000Y-106370000D01*
X157370000Y-116710000D02*
X167650000Y-116710000D01*
X159860000Y-116650000D02*
X165160000Y-116650000D01*
X161510000Y-106370000D02*
G75*
G03*
X163510000Y-106370000I1000000J0D01*
G01*
%TO.C,U1*%
X119350000Y-79995000D02*
X119350000Y-98015000D01*
X129630000Y-79995000D02*
X119350000Y-79995000D01*
X121840000Y-97955000D02*
X123490000Y-97955000D01*
X129630000Y-98015000D02*
X129630000Y-79995000D01*
X125490000Y-97955000D02*
X127140000Y-97955000D01*
X127140000Y-80055000D02*
X121840000Y-80055000D01*
X121840000Y-80055000D02*
X121840000Y-97955000D01*
X127140000Y-97955000D02*
X127140000Y-80055000D01*
X119350000Y-98015000D02*
X129630000Y-98015000D01*
X125490000Y-97955000D02*
G75*
G03*
X123490000Y-97955000I-1000000J0D01*
G01*
%TO.C,R19*%
X139770000Y-87880000D02*
X133230000Y-87880000D01*
X139770000Y-90620000D02*
X139770000Y-87880000D01*
X140540000Y-89250000D02*
X139770000Y-89250000D01*
X132460000Y-89250000D02*
X133230000Y-89250000D01*
X133230000Y-87880000D02*
X133230000Y-90620000D01*
X133230000Y-90620000D02*
X139770000Y-90620000D01*
%TO.C,R12*%
X131750000Y-76960000D02*
X131750000Y-77730000D01*
X131750000Y-85040000D02*
X131750000Y-84270000D01*
X130380000Y-84270000D02*
X133120000Y-84270000D01*
X133120000Y-77730000D02*
X130380000Y-77730000D01*
X133120000Y-84270000D02*
X133120000Y-77730000D01*
X130380000Y-77730000D02*
X130380000Y-84270000D01*
%TO.C,C11*%
X131380000Y-98620000D02*
X138620000Y-98620000D01*
X131380000Y-95880000D02*
X138620000Y-95880000D01*
X131380000Y-95880000D02*
X131380000Y-98620000D01*
X138620000Y-95880000D02*
X138620000Y-98620000D01*
%TO.C,C10*%
X131130000Y-94870000D02*
X138370000Y-94870000D01*
X131130000Y-92130000D02*
X138370000Y-92130000D01*
X131130000Y-92130000D02*
X131130000Y-94870000D01*
X138370000Y-92130000D02*
X138370000Y-94870000D01*
%TO.C,DRL1*%
X146501000Y-79750000D02*
G75*
G03*
X146501000Y-79750000I-1251000J0D01*
G01*
%TO.C,R34*%
X136710000Y-85000000D02*
X137480000Y-85000000D01*
X144790000Y-85000000D02*
X144020000Y-85000000D01*
X144020000Y-86370000D02*
X144020000Y-83630000D01*
X137480000Y-83630000D02*
X137480000Y-86370000D01*
X144020000Y-83630000D02*
X137480000Y-83630000D01*
X137480000Y-86370000D02*
X144020000Y-86370000D01*
%TO.C,R10*%
X102290000Y-62500000D02*
X101520000Y-62500000D01*
X94210000Y-62500000D02*
X94980000Y-62500000D01*
X94980000Y-61130000D02*
X94980000Y-63870000D01*
X101520000Y-63870000D02*
X101520000Y-61130000D01*
X94980000Y-63870000D02*
X101520000Y-63870000D01*
X101520000Y-61130000D02*
X94980000Y-61130000D01*
%TO.C,C8*%
X187572000Y-118134113D02*
X189928000Y-118134113D01*
X189790000Y-119174113D02*
X190997000Y-119174113D01*
X189790000Y-119855113D02*
X191261000Y-119855113D01*
X186746000Y-118814113D02*
X187710000Y-118814113D01*
X189790000Y-119054113D02*
X190925000Y-119054113D01*
X186601000Y-119014113D02*
X187710000Y-119014113D01*
X189790000Y-118774113D02*
X190721000Y-118774113D01*
X187367000Y-118254113D02*
X190133000Y-118254113D01*
X186440000Y-119294113D02*
X187710000Y-119294113D01*
X186628000Y-118974113D02*
X187710000Y-118974113D01*
X187196000Y-118374113D02*
X190304000Y-118374113D01*
X186259000Y-119775113D02*
X187710000Y-119775113D01*
X189790000Y-119815113D02*
X191251000Y-119815113D01*
X186295000Y-119654113D02*
X187710000Y-119654113D01*
X189790000Y-118534113D02*
X190493000Y-118534113D01*
X188466000Y-117854113D02*
X189034000Y-117854113D01*
X189790000Y-118614113D02*
X190576000Y-118614113D01*
X187499000Y-118174113D02*
X190001000Y-118174113D01*
X186482000Y-119214113D02*
X187710000Y-119214113D01*
X189790000Y-119014113D02*
X190899000Y-119014113D01*
X188232000Y-117894113D02*
X189268000Y-117894113D01*
X186200000Y-120055113D02*
X187710000Y-120055113D01*
X189790000Y-118894113D02*
X190815000Y-118894113D01*
X188073000Y-117934113D02*
X189427000Y-117934113D01*
X186230000Y-119895113D02*
X187710000Y-119895113D01*
X186886000Y-118654113D02*
X187710000Y-118654113D01*
X189790000Y-120015113D02*
X191293000Y-120015113D01*
X186352000Y-119494113D02*
X187710000Y-119494113D01*
X186550000Y-119094113D02*
X187710000Y-119094113D01*
X186171000Y-120375113D02*
X187710000Y-120375113D01*
X189790000Y-120055113D02*
X191300000Y-120055113D01*
X186174000Y-120295113D02*
X187710000Y-120295113D01*
X189790000Y-118854113D02*
X190785000Y-118854113D01*
X189790000Y-119334113D02*
X191079000Y-119334113D01*
X189790000Y-119534113D02*
X191164000Y-119534113D01*
X186779000Y-118774113D02*
X187710000Y-118774113D01*
X186849000Y-118694113D02*
X187710000Y-118694113D01*
X186322000Y-119574113D02*
X187710000Y-119574113D01*
X187739000Y-118054113D02*
X189761000Y-118054113D01*
X186924000Y-118614113D02*
X187710000Y-118614113D01*
X186503000Y-119174113D02*
X187710000Y-119174113D01*
X186421000Y-119334113D02*
X187710000Y-119334113D01*
X186177000Y-120255113D02*
X187710000Y-120255113D01*
X189790000Y-118574113D02*
X190535000Y-118574113D01*
X187652000Y-118094113D02*
X189848000Y-118094113D01*
X186239000Y-119855113D02*
X187710000Y-119855113D01*
X187007000Y-118534113D02*
X187710000Y-118534113D01*
X186282000Y-119694113D02*
X187710000Y-119694113D01*
X186655000Y-118934113D02*
X187710000Y-118934113D01*
X186170000Y-120415113D02*
X187710000Y-120415113D01*
X186194000Y-120095113D02*
X187710000Y-120095113D01*
X186685000Y-118894113D02*
X187710000Y-118894113D01*
X186308000Y-119614113D02*
X187710000Y-119614113D01*
X189790000Y-120335113D02*
X191328000Y-120335113D01*
X189790000Y-120375113D02*
X191329000Y-120375113D01*
X189790000Y-119614113D02*
X191192000Y-119614113D01*
X187250000Y-118334113D02*
X190250000Y-118334113D01*
X186172000Y-120335113D02*
X187710000Y-120335113D01*
X187431000Y-118214113D02*
X190069000Y-118214113D01*
X189790000Y-118494113D02*
X190449000Y-118494113D01*
X189790000Y-119414113D02*
X191115000Y-119414113D01*
X189790000Y-119975113D02*
X191286000Y-119975113D01*
X189790000Y-119775113D02*
X191241000Y-119775113D01*
X186170000Y-120455113D02*
X187710000Y-120455113D01*
X187051000Y-118494113D02*
X187710000Y-118494113D01*
X189790000Y-119214113D02*
X191018000Y-119214113D01*
X186385000Y-119414113D02*
X187710000Y-119414113D01*
X186460000Y-119254113D02*
X187710000Y-119254113D01*
X189790000Y-120175113D02*
X191315000Y-120175113D01*
X187307000Y-118294113D02*
X190193000Y-118294113D01*
X186189000Y-120135113D02*
X187710000Y-120135113D01*
X189790000Y-118734113D02*
X190687000Y-118734113D01*
X186270000Y-119734113D02*
X187710000Y-119734113D01*
X186526000Y-119134113D02*
X187710000Y-119134113D01*
X189790000Y-119574113D02*
X191178000Y-119574113D01*
X189790000Y-118654113D02*
X190614000Y-118654113D01*
X189790000Y-120255113D02*
X191323000Y-120255113D01*
X189790000Y-120455113D02*
X191330000Y-120455113D01*
X189790000Y-118694113D02*
X190651000Y-118694113D01*
X189790000Y-119935113D02*
X191278000Y-119935113D01*
X186214000Y-119975113D02*
X187710000Y-119975113D01*
X186368000Y-119454113D02*
X187710000Y-119454113D01*
X186181000Y-120215113D02*
X187710000Y-120215113D01*
X186249000Y-119815113D02*
X187710000Y-119815113D01*
X189790000Y-120095113D02*
X191306000Y-120095113D01*
X186402000Y-119374113D02*
X187710000Y-119374113D01*
X189790000Y-118814113D02*
X190754000Y-118814113D01*
X189790000Y-119734113D02*
X191230000Y-119734113D01*
X189790000Y-119094113D02*
X190950000Y-119094113D01*
X187145000Y-118414113D02*
X190355000Y-118414113D01*
X189790000Y-120295113D02*
X191326000Y-120295113D01*
X189790000Y-119374113D02*
X191098000Y-119374113D01*
X186813000Y-118734113D02*
X187710000Y-118734113D01*
X189790000Y-119895113D02*
X191270000Y-119895113D01*
X189790000Y-119254113D02*
X191040000Y-119254113D01*
X189790000Y-120135113D02*
X191311000Y-120135113D01*
X189790000Y-119294113D02*
X191060000Y-119294113D01*
X189790000Y-119134113D02*
X190974000Y-119134113D01*
X186336000Y-119534113D02*
X187710000Y-119534113D01*
X186715000Y-118854113D02*
X187710000Y-118854113D01*
X186222000Y-119935113D02*
X187710000Y-119935113D01*
X187275000Y-123259888D02*
X187275000Y-122759888D01*
X189790000Y-119654113D02*
X191205000Y-119654113D01*
X189790000Y-118974113D02*
X190872000Y-118974113D01*
X189790000Y-118454113D02*
X190403000Y-118454113D01*
X187835000Y-118014113D02*
X189665000Y-118014113D01*
X186965000Y-118574113D02*
X187710000Y-118574113D01*
X189790000Y-118934113D02*
X190845000Y-118934113D01*
X186575000Y-119054113D02*
X187710000Y-119054113D01*
X189790000Y-120215113D02*
X191319000Y-120215113D01*
X187097000Y-118454113D02*
X187710000Y-118454113D01*
X186185000Y-120175113D02*
X187710000Y-120175113D01*
X186207000Y-120015113D02*
X187710000Y-120015113D01*
X189790000Y-119694113D02*
X191218000Y-119694113D01*
X187025000Y-123009888D02*
X187525000Y-123009888D01*
X189790000Y-119454113D02*
X191132000Y-119454113D01*
X189790000Y-119494113D02*
X191148000Y-119494113D01*
X189790000Y-120415113D02*
X191330000Y-120415113D01*
X187945000Y-117974113D02*
X189555000Y-117974113D01*
X191370000Y-120455113D02*
G75*
G03*
X191370000Y-120455113I-2620000J0D01*
G01*
%TO.C,R2*%
X120230000Y-75380000D02*
X120230000Y-78120000D01*
X126770000Y-78120000D02*
X126770000Y-75380000D01*
X126770000Y-75380000D02*
X120230000Y-75380000D01*
X120230000Y-78120000D02*
X126770000Y-78120000D01*
X127540000Y-76750000D02*
X126770000Y-76750000D01*
X119460000Y-76750000D02*
X120230000Y-76750000D01*
%TO.C,R8*%
X124370000Y-112770000D02*
X124370000Y-106230000D01*
X123000000Y-105460000D02*
X123000000Y-106230000D01*
X121630000Y-112770000D02*
X124370000Y-112770000D01*
X124370000Y-106230000D02*
X121630000Y-106230000D01*
X123000000Y-113540000D02*
X123000000Y-112770000D01*
X121630000Y-106230000D02*
X121630000Y-112770000D01*
%TO.C,C1*%
X112350000Y-55540000D02*
X112350000Y-57011000D01*
X112551000Y-52045000D02*
X112551000Y-53460000D01*
X112471000Y-52020000D02*
X112471000Y-53460000D01*
X112791000Y-52135000D02*
X112791000Y-53460000D01*
X111830000Y-55540000D02*
X111830000Y-57079000D01*
X113671000Y-52757000D02*
X113671000Y-53460000D01*
X113351000Y-52465000D02*
X113351000Y-53460000D01*
X112030000Y-51935000D02*
X112030000Y-53460000D01*
X113911000Y-53057000D02*
X113911000Y-55943000D01*
X111990000Y-55540000D02*
X111990000Y-57069000D01*
X112911000Y-55540000D02*
X112911000Y-56810000D01*
X113431000Y-52529000D02*
X113431000Y-53460000D01*
X112230000Y-55540000D02*
X112230000Y-57036000D01*
X113631000Y-55540000D02*
X113631000Y-56285000D01*
X112390000Y-51999000D02*
X112390000Y-53460000D01*
X112511000Y-52032000D02*
X112511000Y-53460000D01*
X113591000Y-55540000D02*
X113591000Y-56326000D01*
X113231000Y-55540000D02*
X113231000Y-56622000D01*
X112671000Y-52086000D02*
X112671000Y-53460000D01*
X113751000Y-55540000D02*
X113751000Y-56153000D01*
X113711000Y-55540000D02*
X113711000Y-56199000D01*
X112150000Y-55540000D02*
X112150000Y-57050000D01*
X112310000Y-51980000D02*
X112310000Y-53460000D01*
X112751000Y-55540000D02*
X112751000Y-56882000D01*
X113631000Y-52715000D02*
X113631000Y-53460000D01*
X112831000Y-55540000D02*
X112831000Y-56848000D01*
X111830000Y-51921000D02*
X111830000Y-53460000D01*
X113471000Y-55540000D02*
X113471000Y-56437000D01*
X112190000Y-55540000D02*
X112190000Y-57043000D01*
X114071000Y-53322000D02*
X114071000Y-55678000D01*
X113391000Y-55540000D02*
X113391000Y-56504000D01*
X113271000Y-55540000D02*
X113271000Y-56595000D01*
X113071000Y-55540000D02*
X113071000Y-56724000D01*
X111910000Y-51924000D02*
X111910000Y-53460000D01*
X113791000Y-52895000D02*
X113791000Y-56105000D01*
X113151000Y-55540000D02*
X113151000Y-56675000D01*
X113031000Y-52253000D02*
X113031000Y-53460000D01*
X113231000Y-52378000D02*
X113231000Y-53460000D01*
X111870000Y-51922000D02*
X111870000Y-53460000D01*
X113111000Y-52300000D02*
X113111000Y-53460000D01*
X113191000Y-52351000D02*
X113191000Y-53460000D01*
X114311000Y-53982000D02*
X114311000Y-55018000D01*
X112390000Y-55540000D02*
X112390000Y-57001000D01*
X113271000Y-52405000D02*
X113271000Y-53460000D01*
X114231000Y-53695000D02*
X114231000Y-55305000D01*
X113151000Y-52325000D02*
X113151000Y-53460000D01*
X113191000Y-55540000D02*
X113191000Y-56649000D01*
X112631000Y-55540000D02*
X112631000Y-56928000D01*
X114151000Y-53489000D02*
X114151000Y-55511000D01*
X114191000Y-53585000D02*
X114191000Y-55415000D01*
X111790000Y-55540000D02*
X111790000Y-57080000D01*
X113311000Y-52435000D02*
X113311000Y-53460000D01*
X112030000Y-55540000D02*
X112030000Y-57065000D01*
X113391000Y-52496000D02*
X113391000Y-53460000D01*
X112831000Y-52152000D02*
X112831000Y-53460000D01*
X112230000Y-51964000D02*
X112230000Y-53460000D01*
X111750000Y-55540000D02*
X111750000Y-57080000D01*
X113511000Y-55540000D02*
X113511000Y-56401000D01*
X112751000Y-52118000D02*
X112751000Y-53460000D01*
X112951000Y-52210000D02*
X112951000Y-53460000D01*
X112791000Y-55540000D02*
X112791000Y-56865000D01*
X114111000Y-53402000D02*
X114111000Y-55598000D01*
X114031000Y-53249000D02*
X114031000Y-55751000D01*
X113711000Y-52801000D02*
X113711000Y-53460000D01*
X113511000Y-52599000D02*
X113511000Y-53460000D01*
X112471000Y-55540000D02*
X112471000Y-56980000D01*
X113551000Y-52636000D02*
X113551000Y-53460000D01*
X112270000Y-51972000D02*
X112270000Y-53460000D01*
X112070000Y-55540000D02*
X112070000Y-57061000D01*
X108945225Y-53025000D02*
X109445225Y-53025000D01*
X113311000Y-55540000D02*
X113311000Y-56565000D01*
X112430000Y-52009000D02*
X112430000Y-53460000D01*
X112991000Y-55540000D02*
X112991000Y-56768000D01*
X112070000Y-51939000D02*
X112070000Y-53460000D01*
X111990000Y-51931000D02*
X111990000Y-53460000D01*
X113951000Y-53117000D02*
X113951000Y-55883000D01*
X112551000Y-55540000D02*
X112551000Y-56955000D01*
X109195225Y-52775000D02*
X109195225Y-53275000D01*
X113551000Y-55540000D02*
X113551000Y-56364000D01*
X114271000Y-53823000D02*
X114271000Y-55177000D01*
X112110000Y-55540000D02*
X112110000Y-57056000D01*
X111950000Y-55540000D02*
X111950000Y-57073000D01*
X113431000Y-55540000D02*
X113431000Y-56471000D01*
X112871000Y-55540000D02*
X112871000Y-56829000D01*
X112951000Y-55540000D02*
X112951000Y-56790000D01*
X112190000Y-51957000D02*
X112190000Y-53460000D01*
X113991000Y-53181000D02*
X113991000Y-55819000D01*
X112350000Y-51989000D02*
X112350000Y-53460000D01*
X112991000Y-52232000D02*
X112991000Y-53460000D01*
X113831000Y-52946000D02*
X113831000Y-56054000D01*
X113111000Y-55540000D02*
X113111000Y-56700000D01*
X112150000Y-51950000D02*
X112150000Y-53460000D01*
X112591000Y-52058000D02*
X112591000Y-53460000D01*
X112711000Y-52102000D02*
X112711000Y-53460000D01*
X112430000Y-55540000D02*
X112430000Y-56991000D01*
X113031000Y-55540000D02*
X113031000Y-56747000D01*
X112631000Y-52072000D02*
X112631000Y-53460000D01*
X112591000Y-55540000D02*
X112591000Y-56942000D01*
X113871000Y-53000000D02*
X113871000Y-56000000D01*
X113591000Y-52674000D02*
X113591000Y-53460000D01*
X112270000Y-55540000D02*
X112270000Y-57028000D01*
X112511000Y-55540000D02*
X112511000Y-56968000D01*
X111790000Y-51920000D02*
X111790000Y-53460000D01*
X112110000Y-51944000D02*
X112110000Y-53460000D01*
X111870000Y-55540000D02*
X111870000Y-57078000D01*
X113751000Y-52847000D02*
X113751000Y-53460000D01*
X114351000Y-54216000D02*
X114351000Y-54784000D01*
X111950000Y-51927000D02*
X111950000Y-53460000D01*
X113471000Y-52563000D02*
X113471000Y-53460000D01*
X112871000Y-52171000D02*
X112871000Y-53460000D01*
X112911000Y-52190000D02*
X112911000Y-53460000D01*
X113351000Y-55540000D02*
X113351000Y-56535000D01*
X112310000Y-55540000D02*
X112310000Y-57020000D01*
X111910000Y-55540000D02*
X111910000Y-57076000D01*
X111750000Y-51920000D02*
X111750000Y-53460000D01*
X113071000Y-52276000D02*
X113071000Y-53460000D01*
X112671000Y-55540000D02*
X112671000Y-56914000D01*
X112711000Y-55540000D02*
X112711000Y-56898000D01*
X113671000Y-55540000D02*
X113671000Y-56243000D01*
X114370000Y-54500000D02*
G75*
G03*
X114370000Y-54500000I-2620000J0D01*
G01*
%TO.C,DRL1*%
X164751000Y-65217500D02*
G75*
G03*
X164751000Y-65217500I-1251000J0D01*
G01*
%TO.C,R21*%
X173040000Y-100750000D02*
X172270000Y-100750000D01*
X165730000Y-102120000D02*
X172270000Y-102120000D01*
X172270000Y-99380000D02*
X165730000Y-99380000D01*
X172270000Y-102120000D02*
X172270000Y-99380000D01*
X165730000Y-99380000D02*
X165730000Y-102120000D01*
X164960000Y-100750000D02*
X165730000Y-100750000D01*
%TO.C,C4*%
X115630000Y-87370000D02*
X118370000Y-87370000D01*
X115630000Y-87370000D02*
X115630000Y-80130000D01*
X118370000Y-87370000D02*
X118370000Y-80130000D01*
X115630000Y-80130000D02*
X118370000Y-80130000D01*
%TO.C,J8*%
X111715000Y-92220000D02*
X111715000Y-96970000D01*
X90865000Y-96970000D02*
X93585000Y-96970000D01*
X111715000Y-96970000D02*
X109085000Y-96970000D01*
X114635000Y-83320000D02*
X114635000Y-92220000D01*
X106285000Y-96970000D02*
X96385000Y-96970000D01*
X90865000Y-93570000D02*
X87865000Y-93570000D01*
X90865000Y-78530000D02*
X93585000Y-78530000D01*
X96385000Y-78530000D02*
X106285000Y-78530000D01*
X114635000Y-92220000D02*
X111715000Y-92220000D01*
X111715000Y-78530000D02*
X111715000Y-83280000D01*
X90865000Y-78530000D02*
X90865000Y-81930000D01*
X109085000Y-78530000D02*
X111715000Y-78530000D01*
X114635000Y-83280000D02*
X111715000Y-83280000D01*
X87865000Y-81930000D02*
X87865000Y-93570000D01*
X90865000Y-81930000D02*
X87865000Y-81930000D01*
X90865000Y-93570000D02*
X90865000Y-96970000D01*
%TO.C,R20*%
X149770000Y-76620000D02*
X149770000Y-73880000D01*
X143230000Y-76620000D02*
X149770000Y-76620000D01*
X150540000Y-75250000D02*
X149770000Y-75250000D01*
X143230000Y-73880000D02*
X143230000Y-76620000D01*
X149770000Y-73880000D02*
X143230000Y-73880000D01*
X142460000Y-75250000D02*
X143230000Y-75250000D01*
%TO.C,Q1*%
X97540000Y-54200000D02*
X97540000Y-57800000D01*
X98267205Y-53675816D02*
G75*
G03*
X97540000Y-54200000I1122795J-2324184D01*
G01*
X101990000Y-56000000D02*
G75*
G03*
X100488807Y-53643600I-2600000J0D01*
G01*
X100488807Y-58356400D02*
G75*
G03*
X101990000Y-56000000I-1098807J2356400D01*
G01*
X97540000Y-57800000D02*
G75*
G03*
X98267205Y-58324184I1850000J1800000D01*
G01*
%TO.C,U4*%
X136750000Y-115250000D02*
X136250000Y-116250000D01*
X130750000Y-117750000D02*
X127750000Y-103250000D01*
X135750000Y-114750000D02*
X135250000Y-116250000D01*
X135250000Y-118250000D02*
X134750000Y-116750000D01*
X133750000Y-120250000D02*
X133750000Y-118250000D01*
X137750000Y-115250000D02*
X136750000Y-115250000D01*
X134750000Y-116750000D02*
X135050000Y-116950000D01*
X138750000Y-117750000D02*
X141750000Y-132250000D01*
X135750000Y-119250000D02*
X135750000Y-120250000D01*
X133750000Y-116750000D02*
X134050000Y-116950000D01*
X133250000Y-116250000D02*
X132750000Y-115250000D01*
X127750000Y-132250000D02*
X130750000Y-117750000D01*
X133750000Y-118250000D02*
X133750000Y-119250000D01*
X136250000Y-116250000D02*
X135750000Y-114750000D01*
X139750000Y-106250000D02*
X137750000Y-115250000D01*
X133750000Y-116750000D02*
X133650000Y-117150000D01*
X135750000Y-118250000D02*
X135750000Y-119250000D01*
X139750000Y-129250000D02*
X137250000Y-119250000D01*
X141750000Y-103250000D02*
X138750000Y-117750000D01*
X132250000Y-119250000D02*
X129750000Y-129250000D01*
X132750000Y-115250000D02*
X131750000Y-115250000D01*
X133750000Y-114750000D02*
X133250000Y-116250000D01*
X137250000Y-119250000D02*
X135750000Y-119250000D01*
X135750000Y-120250000D02*
X133750000Y-119250000D01*
X134750000Y-116750000D02*
X134650000Y-117150000D01*
X134250000Y-118250000D02*
X133750000Y-116750000D01*
X133750000Y-119250000D02*
X135750000Y-118250000D01*
X133750000Y-119250000D02*
X132250000Y-119250000D01*
X134250000Y-116250000D02*
X133750000Y-114750000D01*
X135250000Y-116250000D02*
X134750000Y-114750000D01*
X134750000Y-114750000D02*
X134250000Y-116250000D01*
X141750000Y-132250000D02*
X127750000Y-132250000D01*
X129750000Y-106250000D02*
X131750000Y-115250000D01*
X127750000Y-103250000D02*
X141750000Y-103250000D01*
%TO.C,R25*%
X163380000Y-88400000D02*
X163380000Y-94940000D01*
X164750000Y-87630000D02*
X164750000Y-88400000D01*
X166120000Y-88400000D02*
X163380000Y-88400000D01*
X163380000Y-94940000D02*
X166120000Y-94940000D01*
X164750000Y-95710000D02*
X164750000Y-94940000D01*
X166120000Y-94940000D02*
X166120000Y-88400000D01*
%TO.C,R29*%
X166540000Y-126500000D02*
X165770000Y-126500000D01*
X159230000Y-127870000D02*
X165770000Y-127870000D01*
X165770000Y-125130000D02*
X159230000Y-125130000D01*
X165770000Y-127870000D02*
X165770000Y-125130000D01*
X159230000Y-125130000D02*
X159230000Y-127870000D01*
X158460000Y-126500000D02*
X159230000Y-126500000D01*
%TO.C,J7*%
X176285000Y-116470000D02*
X176285000Y-111720000D01*
X173365000Y-102780000D02*
X176285000Y-102780000D01*
X176285000Y-102780000D02*
X176285000Y-98030000D01*
X197135000Y-101430000D02*
X200135000Y-101430000D01*
X197135000Y-116470000D02*
X197135000Y-113070000D01*
X178915000Y-116470000D02*
X176285000Y-116470000D01*
X200135000Y-113070000D02*
X200135000Y-101430000D01*
X181715000Y-98030000D02*
X191615000Y-98030000D01*
X176285000Y-98030000D02*
X178915000Y-98030000D01*
X197135000Y-116470000D02*
X194415000Y-116470000D01*
X197135000Y-101430000D02*
X197135000Y-98030000D01*
X197135000Y-113070000D02*
X200135000Y-113070000D01*
X191615000Y-116470000D02*
X181715000Y-116470000D01*
X173365000Y-111680000D02*
X173365000Y-102780000D01*
X173365000Y-111720000D02*
X176285000Y-111720000D01*
X197135000Y-98030000D02*
X194415000Y-98030000D01*
%TO.C,R14*%
X92130000Y-74270000D02*
X94870000Y-74270000D01*
X94870000Y-74270000D02*
X94870000Y-67730000D01*
X92130000Y-67730000D02*
X92130000Y-74270000D01*
X94870000Y-67730000D02*
X92130000Y-67730000D01*
X93500000Y-66960000D02*
X93500000Y-67730000D01*
X93500000Y-75040000D02*
X93500000Y-74270000D01*
%TO.C,U2*%
X161755000Y-88100000D02*
X143735000Y-88100000D01*
X161755000Y-98380000D02*
X161755000Y-88100000D01*
X161695000Y-95890000D02*
X161695000Y-90590000D01*
X143735000Y-88100000D02*
X143735000Y-98380000D01*
X143795000Y-95890000D02*
X161695000Y-95890000D01*
X161695000Y-90590000D02*
X143795000Y-90590000D01*
X143735000Y-98380000D02*
X161755000Y-98380000D01*
X143795000Y-94240000D02*
X143795000Y-95890000D01*
X143795000Y-90590000D02*
X143795000Y-92240000D01*
X143795000Y-94240000D02*
G75*
G03*
X143795000Y-92240000I0J1000000D01*
G01*
%TO.C,R26*%
X168880000Y-94940000D02*
X171620000Y-94940000D01*
X170250000Y-95710000D02*
X170250000Y-94940000D01*
X171620000Y-88400000D02*
X168880000Y-88400000D01*
X168880000Y-88400000D02*
X168880000Y-94940000D01*
X170250000Y-87630000D02*
X170250000Y-88400000D01*
X171620000Y-94940000D02*
X171620000Y-88400000D01*
%TO.C,C3*%
X160320000Y-86470000D02*
X160320000Y-83730000D01*
X160320000Y-83730000D02*
X153080000Y-83730000D01*
X160320000Y-86470000D02*
X153080000Y-86470000D01*
X153080000Y-86470000D02*
X153080000Y-83730000D01*
%TO.C,R6*%
X130270000Y-73620000D02*
X130270000Y-70880000D01*
X123730000Y-73620000D02*
X130270000Y-73620000D01*
X130270000Y-70880000D02*
X123730000Y-70880000D01*
X131040000Y-72250000D02*
X130270000Y-72250000D01*
X123730000Y-70880000D02*
X123730000Y-73620000D01*
X122960000Y-72250000D02*
X123730000Y-72250000D01*
%TO.C,R23*%
X140130000Y-100270000D02*
X142870000Y-100270000D01*
X142870000Y-93730000D02*
X140130000Y-93730000D01*
X141500000Y-101040000D02*
X141500000Y-100270000D01*
X140130000Y-93730000D02*
X140130000Y-100270000D01*
X142870000Y-100270000D02*
X142870000Y-93730000D01*
X141500000Y-92960000D02*
X141500000Y-93730000D01*
%TO.C,R18*%
X92460000Y-99750000D02*
X93230000Y-99750000D01*
X99770000Y-98380000D02*
X93230000Y-98380000D01*
X93230000Y-98380000D02*
X93230000Y-101120000D01*
X100540000Y-99750000D02*
X99770000Y-99750000D01*
X99770000Y-101120000D02*
X99770000Y-98380000D01*
X93230000Y-101120000D02*
X99770000Y-101120000D01*
%TO.C,R27*%
X177000000Y-86960000D02*
X177000000Y-87730000D01*
X175630000Y-94270000D02*
X178370000Y-94270000D01*
X178370000Y-87730000D02*
X175630000Y-87730000D01*
X178370000Y-94270000D02*
X178370000Y-87730000D01*
X175630000Y-87730000D02*
X175630000Y-94270000D01*
X177000000Y-95040000D02*
X177000000Y-94270000D01*
%TO.C,R30*%
X126200000Y-105460000D02*
X126200000Y-106230000D01*
X124830000Y-112770000D02*
X127570000Y-112770000D01*
X127570000Y-112770000D02*
X127570000Y-106230000D01*
X127570000Y-106230000D02*
X124830000Y-106230000D01*
X126200000Y-113540000D02*
X126200000Y-112770000D01*
X124830000Y-106230000D02*
X124830000Y-112770000D01*
%TO.C,R1*%
X132620000Y-56730000D02*
X129880000Y-56730000D01*
X132620000Y-63270000D02*
X132620000Y-56730000D01*
X131250000Y-55960000D02*
X131250000Y-56730000D01*
X129880000Y-56730000D02*
X129880000Y-63270000D01*
X131250000Y-64040000D02*
X131250000Y-63270000D01*
X129880000Y-63270000D02*
X132620000Y-63270000D01*
%TO.C,R4*%
X130230000Y-102370000D02*
X136770000Y-102370000D01*
X137540000Y-101000000D02*
X136770000Y-101000000D01*
X129460000Y-101000000D02*
X130230000Y-101000000D01*
X136770000Y-102370000D02*
X136770000Y-99630000D01*
X136770000Y-99630000D02*
X130230000Y-99630000D01*
X130230000Y-99630000D02*
X130230000Y-102370000D01*
%TO.C,R13*%
X99120000Y-67730000D02*
X96380000Y-67730000D01*
X99120000Y-74270000D02*
X99120000Y-67730000D01*
X97750000Y-66960000D02*
X97750000Y-67730000D01*
X96380000Y-74270000D02*
X99120000Y-74270000D01*
X96380000Y-67730000D02*
X96380000Y-74270000D01*
X97750000Y-75040000D02*
X97750000Y-74270000D01*
%TO.C,R3*%
X100630000Y-67730000D02*
X100630000Y-74270000D01*
X100630000Y-74270000D02*
X103370000Y-74270000D01*
X102000000Y-75040000D02*
X102000000Y-74270000D01*
X103370000Y-67730000D02*
X100630000Y-67730000D01*
X102000000Y-66960000D02*
X102000000Y-67730000D01*
X103370000Y-74270000D02*
X103370000Y-67730000D01*
%TO.C,R31*%
X166540000Y-129500000D02*
X165770000Y-129500000D01*
X159230000Y-128130000D02*
X159230000Y-130870000D01*
X158460000Y-129500000D02*
X159230000Y-129500000D01*
X159230000Y-130870000D02*
X165770000Y-130870000D01*
X165770000Y-128130000D02*
X159230000Y-128130000D01*
X165770000Y-130870000D02*
X165770000Y-128130000D01*
%TO.C,U5*%
X142000000Y-103250000D02*
X156000000Y-103250000D01*
X154000000Y-129250000D02*
X151500000Y-119250000D01*
X149500000Y-118250000D02*
X149000000Y-116750000D01*
X148000000Y-119250000D02*
X150000000Y-118250000D01*
X148500000Y-116250000D02*
X148000000Y-114750000D01*
X149000000Y-116750000D02*
X148900000Y-117150000D01*
X150000000Y-119250000D02*
X150000000Y-120250000D01*
X150000000Y-120250000D02*
X148000000Y-119250000D01*
X156000000Y-103250000D02*
X153000000Y-117750000D01*
X148500000Y-118250000D02*
X148000000Y-116750000D01*
X149500000Y-116250000D02*
X149000000Y-114750000D01*
X147000000Y-115250000D02*
X146000000Y-115250000D01*
X145000000Y-117750000D02*
X142000000Y-103250000D01*
X156000000Y-132250000D02*
X142000000Y-132250000D01*
X144000000Y-106250000D02*
X146000000Y-115250000D01*
X148000000Y-118250000D02*
X148000000Y-119250000D01*
X149000000Y-114750000D02*
X148500000Y-116250000D01*
X154000000Y-106250000D02*
X152000000Y-115250000D01*
X148000000Y-120250000D02*
X148000000Y-118250000D01*
X149000000Y-116750000D02*
X149300000Y-116950000D01*
X148000000Y-116750000D02*
X148300000Y-116950000D01*
X151000000Y-115250000D02*
X150500000Y-116250000D01*
X146500000Y-119250000D02*
X144000000Y-129250000D01*
X147500000Y-116250000D02*
X147000000Y-115250000D01*
X152000000Y-115250000D02*
X151000000Y-115250000D01*
X142000000Y-132250000D02*
X145000000Y-117750000D01*
X150500000Y-116250000D02*
X150000000Y-114750000D01*
X148000000Y-119250000D02*
X146500000Y-119250000D01*
X148000000Y-114750000D02*
X147500000Y-116250000D01*
X153000000Y-117750000D02*
X156000000Y-132250000D01*
X150000000Y-114750000D02*
X149500000Y-116250000D01*
X148000000Y-116750000D02*
X147900000Y-117150000D01*
X150000000Y-118250000D02*
X150000000Y-119250000D01*
X151500000Y-119250000D02*
X150000000Y-119250000D01*
%TO.C,R33*%
X172380000Y-128520000D02*
X175120000Y-128520000D01*
X175120000Y-128520000D02*
X175120000Y-121980000D01*
X175120000Y-121980000D02*
X172380000Y-121980000D01*
X173750000Y-129290000D02*
X173750000Y-128520000D01*
X172380000Y-121980000D02*
X172380000Y-128520000D01*
X173750000Y-121210000D02*
X173750000Y-121980000D01*
%TO.C,DRL2*%
X183001000Y-79750000D02*
G75*
G03*
X183001000Y-79750000I-1251000J0D01*
G01*
%TO.C,R5*%
X118370000Y-91480000D02*
X115630000Y-91480000D01*
X117000000Y-98790000D02*
X117000000Y-98020000D01*
X115630000Y-98020000D02*
X118370000Y-98020000D01*
X117000000Y-90710000D02*
X117000000Y-91480000D01*
X118370000Y-98020000D02*
X118370000Y-91480000D01*
X115630000Y-91480000D02*
X115630000Y-98020000D01*
%TO.C,R22*%
X159460000Y-73500000D02*
X160230000Y-73500000D01*
X160230000Y-74870000D02*
X166770000Y-74870000D01*
X166770000Y-74870000D02*
X166770000Y-72130000D01*
X166770000Y-72130000D02*
X160230000Y-72130000D01*
X167540000Y-73500000D02*
X166770000Y-73500000D01*
X160230000Y-72130000D02*
X160230000Y-74870000D01*
%TO.C,R9*%
X119620000Y-67020000D02*
X119620000Y-60480000D01*
X119620000Y-60480000D02*
X116880000Y-60480000D01*
X116880000Y-67020000D02*
X119620000Y-67020000D01*
X118250000Y-67790000D02*
X118250000Y-67020000D01*
X116880000Y-60480000D02*
X116880000Y-67020000D01*
X118250000Y-59710000D02*
X118250000Y-60480000D01*
%TO.C,DRL3*%
X128251000Y-65250000D02*
G75*
G03*
X128251000Y-65250000I-1251000J0D01*
G01*
%TO.C,R15*%
X142230000Y-56880000D02*
X142230000Y-59620000D01*
X141460000Y-58250000D02*
X142230000Y-58250000D01*
X149540000Y-58250000D02*
X148770000Y-58250000D01*
X148770000Y-59620000D02*
X148770000Y-56880000D01*
X148770000Y-56880000D02*
X142230000Y-56880000D01*
X142230000Y-59620000D02*
X148770000Y-59620000D01*
%TO.C,R7*%
X121130000Y-63270000D02*
X123870000Y-63270000D01*
X122500000Y-64040000D02*
X122500000Y-63270000D01*
X123870000Y-56730000D02*
X121130000Y-56730000D01*
X123870000Y-63270000D02*
X123870000Y-56730000D01*
X122500000Y-55960000D02*
X122500000Y-56730000D01*
X121130000Y-56730000D02*
X121130000Y-63270000D01*
%TO.C,R28*%
X159230000Y-124870000D02*
X165770000Y-124870000D01*
X166540000Y-123500000D02*
X165770000Y-123500000D01*
X165770000Y-122130000D02*
X159230000Y-122130000D01*
X165770000Y-124870000D02*
X165770000Y-122130000D01*
X158460000Y-123500000D02*
X159230000Y-123500000D01*
X159230000Y-122130000D02*
X159230000Y-124870000D01*
%TO.C,C5*%
X107620000Y-68880000D02*
X104880000Y-68880000D01*
X104880000Y-68880000D02*
X104880000Y-76120000D01*
X107620000Y-76120000D02*
X104880000Y-76120000D01*
X107620000Y-68880000D02*
X107620000Y-76120000D01*
%TO.C,C6*%
X104630000Y-60620000D02*
X104630000Y-53380000D01*
X104630000Y-60620000D02*
X107370000Y-60620000D01*
X107370000Y-60620000D02*
X107370000Y-53380000D01*
X104630000Y-53380000D02*
X107370000Y-53380000D01*
%TO.C,R17*%
X136250000Y-81290000D02*
X136250000Y-80520000D01*
X134880000Y-73980000D02*
X134880000Y-80520000D01*
X136250000Y-73210000D02*
X136250000Y-73980000D01*
X137620000Y-73980000D02*
X134880000Y-73980000D01*
X137620000Y-80520000D02*
X137620000Y-73980000D01*
X134880000Y-80520000D02*
X137620000Y-80520000D01*
%TO.C,R16*%
X137620000Y-67770000D02*
X137620000Y-61230000D01*
X134880000Y-61230000D02*
X134880000Y-67770000D01*
X136250000Y-68540000D02*
X136250000Y-67770000D01*
X134880000Y-67770000D02*
X137620000Y-67770000D01*
X136250000Y-60460000D02*
X136250000Y-61230000D01*
X137620000Y-61230000D02*
X134880000Y-61230000D01*
%TO.C,D1*%
X182220000Y-123300000D02*
X179280000Y-123300000D01*
X179280000Y-127720000D02*
X182220000Y-127720000D01*
X180750000Y-121260000D02*
X180750000Y-122280000D01*
X182220000Y-122280000D02*
X179280000Y-122280000D01*
X179280000Y-122280000D02*
X179280000Y-127720000D01*
X182220000Y-123060000D02*
X179280000Y-123060000D01*
X182220000Y-127720000D02*
X182220000Y-122280000D01*
X180750000Y-128740000D02*
X180750000Y-127720000D01*
X182220000Y-123180000D02*
X179280000Y-123180000D01*
%TO.C,C7*%
X189948621Y-125390000D02*
X189948621Y-127460000D01*
X191028621Y-129540000D02*
X191028621Y-131078000D01*
X191188621Y-126050000D02*
X191188621Y-127460000D01*
X190868621Y-125810000D02*
X190868621Y-127460000D01*
X190708621Y-125710000D02*
X190708621Y-127460000D01*
X190948621Y-125864000D02*
X190948621Y-127460000D01*
X190748621Y-125734000D02*
X190748621Y-127460000D01*
X190148621Y-125453000D02*
X190148621Y-127460000D01*
X191388621Y-126235000D02*
X191388621Y-130765000D01*
X189267621Y-125276000D02*
X189267621Y-131724000D01*
X189788621Y-129540000D02*
X189788621Y-131650000D01*
X189467621Y-125294000D02*
X189467621Y-127460000D01*
X189067621Y-125270000D02*
X189067621Y-131730000D01*
X191948621Y-126991000D02*
X191948621Y-130009000D01*
X190908621Y-129540000D02*
X190908621Y-131164000D01*
X191508621Y-126363000D02*
X191508621Y-130637000D01*
X190228621Y-125482000D02*
X190228621Y-127460000D01*
X192148621Y-127441000D02*
X192148621Y-129559000D01*
X189147621Y-125270000D02*
X189147621Y-131730000D01*
X191828621Y-126786000D02*
X191828621Y-130214000D01*
X191748621Y-126666000D02*
X191748621Y-130334000D01*
X189667621Y-129540000D02*
X189667621Y-131675000D01*
X190068621Y-125426000D02*
X190068621Y-127460000D01*
X189667621Y-125325000D02*
X189667621Y-127460000D01*
X190548621Y-125624000D02*
X190548621Y-127460000D01*
X189707621Y-129540000D02*
X189707621Y-131667000D01*
X189707621Y-125333000D02*
X189707621Y-127460000D01*
X191108621Y-129540000D02*
X191108621Y-131016000D01*
X191708621Y-126610000D02*
X191708621Y-130390000D01*
X189547621Y-129540000D02*
X189547621Y-131695000D01*
X189747621Y-129540000D02*
X189747621Y-131659000D01*
X191228621Y-129540000D02*
X191228621Y-130916000D01*
X190548621Y-129540000D02*
X190548621Y-131376000D01*
X192228621Y-127698000D02*
X192228621Y-129302000D01*
X190268621Y-125498000D02*
X190268621Y-127460000D01*
X191148621Y-129540000D02*
X191148621Y-130984000D01*
X190668621Y-129540000D02*
X190668621Y-131312000D01*
X189347621Y-129540000D02*
X189347621Y-131718000D01*
X190508621Y-125604000D02*
X190508621Y-127460000D01*
X190988621Y-125893000D02*
X190988621Y-127460000D01*
X190628621Y-129540000D02*
X190628621Y-131334000D01*
X191348621Y-129540000D02*
X191348621Y-130805000D01*
X190428621Y-125566000D02*
X190428621Y-127460000D01*
X189507621Y-125299000D02*
X189507621Y-127460000D01*
X190988621Y-129540000D02*
X190988621Y-131107000D01*
X190588621Y-129540000D02*
X190588621Y-131356000D01*
X189868621Y-129540000D02*
X189868621Y-131631000D01*
X189507621Y-129540000D02*
X189507621Y-131701000D01*
X190508621Y-129540000D02*
X190508621Y-131396000D01*
X192188621Y-127560000D02*
X192188621Y-129440000D01*
X191148621Y-126016000D02*
X191148621Y-127460000D01*
X190468621Y-129540000D02*
X190468621Y-131416000D01*
X190148621Y-129540000D02*
X190148621Y-131547000D01*
X189627621Y-129540000D02*
X189627621Y-131682000D01*
X189187621Y-125272000D02*
X189187621Y-131728000D01*
X192068621Y-127238000D02*
X192068621Y-129762000D01*
X190788621Y-129540000D02*
X190788621Y-131242000D01*
X191428621Y-126276000D02*
X191428621Y-130724000D01*
X185882380Y-126346000D02*
X185882380Y-126976000D01*
X189387621Y-125285000D02*
X189387621Y-127460000D01*
X190908621Y-125836000D02*
X190908621Y-127460000D01*
X191188621Y-129540000D02*
X191188621Y-130950000D01*
X190028621Y-125414000D02*
X190028621Y-127460000D01*
X189587621Y-129540000D02*
X189587621Y-131689000D01*
X190388621Y-125548000D02*
X190388621Y-127460000D01*
X191548621Y-126408000D02*
X191548621Y-130592000D01*
X190028621Y-129540000D02*
X190028621Y-131586000D01*
X189948621Y-129540000D02*
X189948621Y-131610000D01*
X190708621Y-129540000D02*
X190708621Y-131290000D01*
X190588621Y-125644000D02*
X190588621Y-127460000D01*
X189908621Y-129540000D02*
X189908621Y-131621000D01*
X189427621Y-125289000D02*
X189427621Y-127460000D01*
X190308621Y-129540000D02*
X190308621Y-131486000D01*
X189627621Y-125318000D02*
X189627621Y-127460000D01*
X190348621Y-125530000D02*
X190348621Y-127460000D01*
X190108621Y-125439000D02*
X190108621Y-127460000D01*
X191268621Y-126120000D02*
X191268621Y-127460000D01*
X192028621Y-127150000D02*
X192028621Y-129850000D01*
X189868621Y-125369000D02*
X189868621Y-127460000D01*
X190668621Y-125688000D02*
X190668621Y-127460000D01*
X189988621Y-125402000D02*
X189988621Y-127460000D01*
X191668621Y-126556000D02*
X191668621Y-130444000D01*
X190428621Y-129540000D02*
X190428621Y-131434000D01*
X191908621Y-126919000D02*
X191908621Y-130081000D01*
X190188621Y-129540000D02*
X190188621Y-131533000D01*
X189587621Y-125311000D02*
X189587621Y-127460000D01*
X191308621Y-126157000D02*
X191308621Y-127460000D01*
X190748621Y-129540000D02*
X190748621Y-131266000D01*
X191348621Y-126195000D02*
X191348621Y-127460000D01*
X192108621Y-127335000D02*
X192108621Y-129665000D01*
X190628621Y-125666000D02*
X190628621Y-127460000D01*
X189107621Y-125270000D02*
X189107621Y-131730000D01*
X189387621Y-129540000D02*
X189387621Y-131715000D01*
X191268621Y-129540000D02*
X191268621Y-130880000D01*
X190388621Y-129540000D02*
X190388621Y-131452000D01*
X190948621Y-129540000D02*
X190948621Y-131136000D01*
X191588621Y-126456000D02*
X191588621Y-130544000D01*
X189988621Y-129540000D02*
X189988621Y-131598000D01*
X190068621Y-129540000D02*
X190068621Y-131574000D01*
X191628621Y-126505000D02*
X191628621Y-130495000D01*
X189908621Y-125379000D02*
X189908621Y-127460000D01*
X190308621Y-125514000D02*
X190308621Y-127460000D01*
X190468621Y-125584000D02*
X190468621Y-127460000D01*
X191988621Y-127068000D02*
X191988621Y-129932000D01*
X189347621Y-125282000D02*
X189347621Y-127460000D01*
X191068621Y-129540000D02*
X191068621Y-131048000D01*
X190228621Y-129540000D02*
X190228621Y-131518000D01*
X191228621Y-126084000D02*
X191228621Y-127460000D01*
X190788621Y-125758000D02*
X190788621Y-127460000D01*
X190828621Y-129540000D02*
X190828621Y-131216000D01*
X191068621Y-125952000D02*
X191068621Y-127460000D01*
X190268621Y-129540000D02*
X190268621Y-131502000D01*
X185567380Y-126661000D02*
X186197380Y-126661000D01*
X190348621Y-129540000D02*
X190348621Y-131470000D01*
X189828621Y-125359000D02*
X189828621Y-127460000D01*
X190868621Y-129540000D02*
X190868621Y-131190000D01*
X191788621Y-126724000D02*
X191788621Y-130276000D01*
X189467621Y-129540000D02*
X189467621Y-131706000D01*
X189547621Y-125305000D02*
X189547621Y-127460000D01*
X190188621Y-125467000D02*
X190188621Y-127460000D01*
X192308621Y-128098000D02*
X192308621Y-128902000D01*
X192268621Y-127867000D02*
X192268621Y-129133000D01*
X190828621Y-125784000D02*
X190828621Y-127460000D01*
X191108621Y-125984000D02*
X191108621Y-127460000D01*
X191468621Y-126318000D02*
X191468621Y-130682000D01*
X191308621Y-129540000D02*
X191308621Y-130843000D01*
X191868621Y-126850000D02*
X191868621Y-130150000D01*
X191028621Y-125922000D02*
X191028621Y-127460000D01*
X189828621Y-129540000D02*
X189828621Y-131641000D01*
X189747621Y-125341000D02*
X189747621Y-127460000D01*
X189427621Y-129540000D02*
X189427621Y-131711000D01*
X189788621Y-125350000D02*
X189788621Y-127460000D01*
X190108621Y-129540000D02*
X190108621Y-131561000D01*
X189307621Y-129540000D02*
X189307621Y-131722000D01*
X189227621Y-125273000D02*
X189227621Y-131727000D01*
X189307621Y-125278000D02*
X189307621Y-127460000D01*
X192337621Y-128500000D02*
G75*
G03*
X192337621Y-128500000I-3270000J0D01*
G01*
%TO.C,C2*%
X112579000Y-73960000D02*
X112579000Y-72586000D01*
X112900000Y-77511000D02*
X112900000Y-76040000D01*
X112539000Y-73960000D02*
X112539000Y-72602000D01*
X113460000Y-77580000D02*
X113460000Y-76040000D01*
X111899000Y-77035000D02*
X111899000Y-76040000D01*
X113260000Y-77569000D02*
X113260000Y-76040000D01*
X112459000Y-73960000D02*
X112459000Y-72635000D01*
X112019000Y-73960000D02*
X112019000Y-72878000D01*
X113300000Y-73960000D02*
X113300000Y-72427000D01*
X113140000Y-73960000D02*
X113140000Y-72444000D01*
X110939000Y-75518000D02*
X110939000Y-74482000D01*
X113140000Y-77556000D02*
X113140000Y-76040000D01*
X113180000Y-73960000D02*
X113180000Y-72439000D01*
X112379000Y-73960000D02*
X112379000Y-72671000D01*
X112820000Y-73960000D02*
X112820000Y-72509000D01*
X111259000Y-76319000D02*
X111259000Y-73681000D01*
X113060000Y-73960000D02*
X113060000Y-72457000D01*
X112299000Y-77290000D02*
X112299000Y-76040000D01*
X111899000Y-73960000D02*
X111899000Y-72965000D01*
X111379000Y-76500000D02*
X111379000Y-73500000D01*
X112499000Y-77382000D02*
X112499000Y-76040000D01*
X112059000Y-73960000D02*
X112059000Y-72851000D01*
X111219000Y-76251000D02*
X111219000Y-73749000D01*
X113340000Y-73960000D02*
X113340000Y-72424000D01*
X111539000Y-73960000D02*
X111539000Y-73301000D01*
X111539000Y-76699000D02*
X111539000Y-76040000D01*
X111979000Y-77095000D02*
X111979000Y-76040000D01*
X112619000Y-77428000D02*
X112619000Y-76040000D01*
X111939000Y-73960000D02*
X111939000Y-72935000D01*
X112739000Y-73960000D02*
X112739000Y-72532000D01*
X113380000Y-77578000D02*
X113380000Y-76040000D01*
X112299000Y-73960000D02*
X112299000Y-72710000D01*
X112379000Y-77329000D02*
X112379000Y-76040000D01*
X112699000Y-77455000D02*
X112699000Y-76040000D01*
X111659000Y-76826000D02*
X111659000Y-76040000D01*
X111699000Y-73960000D02*
X111699000Y-73136000D01*
X112339000Y-77310000D02*
X112339000Y-76040000D01*
X112499000Y-73960000D02*
X112499000Y-72618000D01*
X111859000Y-73960000D02*
X111859000Y-72996000D01*
X112419000Y-77348000D02*
X112419000Y-76040000D01*
X111099000Y-76011000D02*
X111099000Y-73989000D01*
X113300000Y-77573000D02*
X113300000Y-76040000D01*
X112179000Y-77224000D02*
X112179000Y-76040000D01*
X111779000Y-76937000D02*
X111779000Y-76040000D01*
X111579000Y-76743000D02*
X111579000Y-76040000D01*
X112579000Y-77414000D02*
X112579000Y-76040000D01*
X112779000Y-77480000D02*
X112779000Y-76040000D01*
X113260000Y-73960000D02*
X113260000Y-72431000D01*
X111939000Y-77065000D02*
X111939000Y-76040000D01*
X112139000Y-73960000D02*
X112139000Y-72800000D01*
X111499000Y-76653000D02*
X111499000Y-76040000D01*
X111819000Y-73960000D02*
X111819000Y-73029000D01*
X111179000Y-76178000D02*
X111179000Y-73822000D01*
X111779000Y-73960000D02*
X111779000Y-73063000D01*
X111499000Y-73960000D02*
X111499000Y-73347000D01*
X112219000Y-77247000D02*
X112219000Y-76040000D01*
X113020000Y-77536000D02*
X113020000Y-76040000D01*
X111819000Y-76971000D02*
X111819000Y-76040000D01*
X111979000Y-73960000D02*
X111979000Y-72905000D01*
X110899000Y-75284000D02*
X110899000Y-74716000D01*
X113100000Y-77550000D02*
X113100000Y-76040000D01*
X111339000Y-76443000D02*
X111339000Y-73557000D01*
X112059000Y-77149000D02*
X112059000Y-76040000D01*
X112419000Y-73960000D02*
X112419000Y-72652000D01*
X113100000Y-73960000D02*
X113100000Y-72450000D01*
X112099000Y-73960000D02*
X112099000Y-72825000D01*
X112459000Y-77365000D02*
X112459000Y-76040000D01*
X113340000Y-77576000D02*
X113340000Y-76040000D01*
X113220000Y-77565000D02*
X113220000Y-76040000D01*
X112099000Y-77175000D02*
X112099000Y-76040000D01*
X112820000Y-77491000D02*
X112820000Y-76040000D01*
X113420000Y-73960000D02*
X113420000Y-72421000D01*
X113460000Y-73960000D02*
X113460000Y-72420000D01*
X111619000Y-73960000D02*
X111619000Y-73215000D01*
X112860000Y-73960000D02*
X112860000Y-72499000D01*
X112659000Y-77442000D02*
X112659000Y-76040000D01*
X113500000Y-73960000D02*
X113500000Y-72420000D01*
X112019000Y-77122000D02*
X112019000Y-76040000D01*
X111739000Y-73960000D02*
X111739000Y-73099000D01*
X113060000Y-77543000D02*
X113060000Y-76040000D01*
X111459000Y-76605000D02*
X111459000Y-73395000D01*
X113180000Y-77561000D02*
X113180000Y-76040000D01*
X112739000Y-77468000D02*
X112739000Y-76040000D01*
X111139000Y-76098000D02*
X111139000Y-73902000D01*
X112860000Y-77501000D02*
X112860000Y-76040000D01*
X116304775Y-76475000D02*
X115804775Y-76475000D01*
X113020000Y-73960000D02*
X113020000Y-72464000D01*
X111419000Y-76554000D02*
X111419000Y-73446000D01*
X111059000Y-75915000D02*
X111059000Y-74085000D01*
X111859000Y-77004000D02*
X111859000Y-76040000D01*
X112940000Y-73960000D02*
X112940000Y-72480000D01*
X112139000Y-77200000D02*
X112139000Y-76040000D01*
X111019000Y-75805000D02*
X111019000Y-74195000D01*
X113380000Y-73960000D02*
X113380000Y-72422000D01*
X112539000Y-77398000D02*
X112539000Y-76040000D01*
X112339000Y-73960000D02*
X112339000Y-72690000D01*
X111699000Y-76864000D02*
X111699000Y-76040000D01*
X112219000Y-73960000D02*
X112219000Y-72753000D01*
X112699000Y-73960000D02*
X112699000Y-72545000D01*
X113420000Y-77579000D02*
X113420000Y-76040000D01*
X111299000Y-76383000D02*
X111299000Y-73617000D01*
X112259000Y-77268000D02*
X112259000Y-76040000D01*
X111739000Y-76901000D02*
X111739000Y-76040000D01*
X112259000Y-73960000D02*
X112259000Y-72732000D01*
X112900000Y-73960000D02*
X112900000Y-72489000D01*
X111579000Y-73960000D02*
X111579000Y-73257000D01*
X110979000Y-75677000D02*
X110979000Y-74323000D01*
X112980000Y-77528000D02*
X112980000Y-76040000D01*
X111619000Y-76785000D02*
X111619000Y-76040000D01*
X112619000Y-73960000D02*
X112619000Y-72572000D01*
X112980000Y-73960000D02*
X112980000Y-72472000D01*
X112940000Y-77520000D02*
X112940000Y-76040000D01*
X112179000Y-73960000D02*
X112179000Y-72776000D01*
X113220000Y-73960000D02*
X113220000Y-72435000D01*
X113500000Y-77580000D02*
X113500000Y-76040000D01*
X112779000Y-73960000D02*
X112779000Y-72520000D01*
X111659000Y-73960000D02*
X111659000Y-73174000D01*
X112659000Y-73960000D02*
X112659000Y-72558000D01*
X116054775Y-76725000D02*
X116054775Y-76225000D01*
X116120000Y-75000000D02*
G75*
G03*
X116120000Y-75000000I-2620000J0D01*
G01*
%TO.C,R11*%
X112270000Y-98380000D02*
X105730000Y-98380000D01*
X113040000Y-99750000D02*
X112270000Y-99750000D01*
X105730000Y-101120000D02*
X112270000Y-101120000D01*
X105730000Y-98380000D02*
X105730000Y-101120000D01*
X112270000Y-101120000D02*
X112270000Y-98380000D01*
X104960000Y-99750000D02*
X105730000Y-99750000D01*
%TO.C,D2*%
X143545000Y-114935000D02*
X140455000Y-114935000D01*
X140455170Y-114935000D02*
G75*
G03*
X142000462Y-120485000I1544830J-2560000D01*
G01*
X141999538Y-120485000D02*
G75*
G03*
X143544830Y-114935000I462J2990000D01*
G01*
X144500000Y-117495000D02*
G75*
G03*
X144500000Y-117495000I-2500000J0D01*
G01*
%TO.C,R32*%
X158460000Y-120500000D02*
X159230000Y-120500000D01*
X166540000Y-120500000D02*
X165770000Y-120500000D01*
X159230000Y-119130000D02*
X159230000Y-121870000D01*
X159230000Y-121870000D02*
X165770000Y-121870000D01*
X165770000Y-121870000D02*
X165770000Y-119130000D01*
X165770000Y-119130000D02*
X159230000Y-119130000D01*
%TO.C,R24*%
X173870000Y-73980000D02*
X171130000Y-73980000D01*
X172500000Y-73210000D02*
X172500000Y-73980000D01*
X172500000Y-81290000D02*
X172500000Y-80520000D01*
X171130000Y-73980000D02*
X171130000Y-80520000D01*
X173870000Y-80520000D02*
X173870000Y-73980000D01*
X171130000Y-80520000D02*
X173870000Y-80520000D01*
%TD*%
M02*
