M48
; DRILL file {KiCad (6.0.5)} date Sat May 28 17:09:25 2022
; FORMAT={-:-/ absolute / inch / decimal}
; #@! TF.CreationDate,2022-05-28T17:09:25-07:00
; #@! TF.GenerationSoftware,Kicad,Pcbnew,(6.0.5)
; #@! TF.FileFunction,Plated,1,2,PTH
FMAT,2
INCH
; #@! TA.AperFunction,Plated,PTH,ComponentDrill
T1C0.0315
; #@! TA.AperFunction,Plated,PTH,ComponentDrill
T2C0.0354
; #@! TA.AperFunction,Plated,PTH,ComponentDrill
T3C0.0394
; #@! TA.AperFunction,Plated,PTH,ComponentDrill
T4C0.0433
; #@! TA.AperFunction,Plated,PTH,ComponentDrill
T5C0.0551
; #@! TA.AperFunction,Plated,PTH,ComponentDrill
T6C0.0689
%
G90
G05
T1
X3.5992Y-3.9272
X3.6681Y-2.4606
X3.6811Y-2.5953
X3.6811Y-2.9953
X3.8484Y-2.5953
X3.8484Y-2.9953
X3.913Y-2.1047
X3.913Y-2.2047
X3.913Y-2.3047
X3.9992Y-3.9272
X4.0157Y-2.5953
X4.0157Y-2.9953
X4.0681Y-2.4606
X4.0913Y-3.9272
X4.1732Y-2.1457
X4.1732Y-2.3425
X4.1831Y-2.7559
X4.1831Y-2.9528
X4.3602Y-2.1457
X4.4291Y-2.9528
X4.439Y-2.1457
X4.4913Y-3.9272
X4.5079Y-2.9528
X4.6063Y-3.1988
X4.6063Y-3.3957
X4.6063Y-3.5303
X4.6063Y-3.9303
X4.6555Y-2.3098
X4.6555Y-2.7098
X4.6622Y-3.0217
X4.7512Y-3.2041
X4.7512Y-3.3041
X4.7512Y-3.4041
X4.7512Y-3.5041
X4.7512Y-3.6041
X4.7512Y-3.7041
X4.7512Y-3.8041
X4.8Y-2.8445
X4.8228Y-2.1622
X4.8228Y-2.5622
X4.8425Y-4.111
X4.8425Y-4.511
X4.9685Y-4.111
X4.9685Y-4.511
X5.0512Y-3.2041
X5.0512Y-3.3041
X5.0512Y-3.4041
X5.0512Y-3.5041
X5.0512Y-3.6041
X5.0512Y-3.7041
X5.0512Y-3.8041
X5.0559Y-3.9764
X5.0622Y-3.0217
X5.1673Y-2.1622
X5.1673Y-2.5622
X5.174Y-3.5138
X5.187Y-2.989
X5.187Y-3.389
X5.2Y-2.8445
X5.2067Y-3.6811
X5.2165Y-3.8287
X5.3413Y-3.3465
X5.3642Y-2.3394
X5.3642Y-2.7394
X5.3642Y-2.8413
X5.3642Y-3.2413
X5.4035Y-3.6811
X5.4134Y-3.8287
X5.4559Y-3.9764
X5.5283Y-2.2933
X5.5677Y-2.9626
X5.5709Y-3.6189
X5.5709Y-4.0189
X5.574Y-3.5138
X5.7136Y-3.5209
X5.7136Y-3.8209
X5.7413Y-3.3465
X5.8136Y-3.5209
X5.8136Y-3.8209
X5.9136Y-3.5209
X5.9136Y-3.8209
X5.9283Y-2.2933
X5.9677Y-2.9626
X6.0136Y-3.5209
X6.0136Y-3.8209
X6.0709Y-3.3504
X6.1136Y-3.5209
X6.1136Y-3.8209
X6.1319Y-3.9665
X6.1976Y-4.7441
X6.1976Y-4.8622
X6.1976Y-4.9803
X6.1976Y-5.0984
X6.2136Y-3.5209
X6.2136Y-3.8209
X6.237Y-2.8937
X6.248Y-4.2402
X6.248Y-4.3402
X6.248Y-4.4402
X6.248Y-4.5402
X6.2677Y-3.3504
X6.3136Y-3.5209
X6.3136Y-3.8209
X6.3287Y-3.9665
X6.4535Y-3.9665
X6.4862Y-3.4091
X6.4862Y-3.8091
X6.548Y-4.2402
X6.548Y-4.3402
X6.548Y-4.4402
X6.548Y-4.5402
X6.5976Y-4.7441
X6.5976Y-4.8622
X6.5976Y-4.9803
X6.5976Y-5.0984
X6.637Y-2.8937
X6.7028Y-3.4091
X6.7028Y-3.8091
X6.7913Y-2.8413
X6.7913Y-3.2413
X6.8406Y-4.7311
X6.8406Y-5.1311
X6.8535Y-3.9665
X6.9685Y-3.3827
X6.9685Y-3.7827
X7.3944Y-5.0591
X7.4311Y-4.703
X7.4311Y-4.7817
X7.4928Y-5.0591
T2
X5.5906Y-4.5758
X5.5906Y-4.6758
T3
X5.0Y-2.5689
X5.1083Y-4.124
X5.1083Y-5.1476
X5.502Y-4.124
X5.5051Y-5.1476
X5.6693Y-4.124
X5.6693Y-5.1476
X5.7185Y-3.1398
X6.063Y-4.124
X6.0661Y-5.1476
X6.437Y-2.5676
X7.1555Y-3.1398
T4
X7.1161Y-4.7213
X7.1161Y-5.1213
T5
X3.7396Y-3.1352
X3.7396Y-3.7742
X4.2396Y-3.1352
X4.2396Y-3.7742
X7.099Y-3.903
X7.099Y-4.5419
X7.599Y-3.903
X7.599Y-4.5419
T6
X3.7795Y-4.1732
X4.0059Y-4.1732
X4.2323Y-4.1732
X4.3714Y-2.372
X4.3714Y-2.5689
X4.3714Y-2.7657
X4.4587Y-4.1732
X4.9114Y-4.6929
X4.9114Y-4.9114
X4.9114Y-5.128
X5.5217Y-2.5111
X5.5217Y-2.708
X5.7185Y-2.5111
X5.7185Y-2.708
X5.9154Y-2.5111
X5.9154Y-2.708
X6.2402Y-3.1975
X6.437Y-3.1975
X6.6339Y-3.1975
X6.9587Y-2.5111
X7.1555Y-2.5111
X7.3524Y-2.5111
X7.6476Y-4.8524
T0
M30
